%TF.GenerationSoftware,KiCad,Pcbnew,(6.0.8)*%
%TF.CreationDate,2022-11-07T14:55:23-05:00*%
%TF.ProjectId,3-input-or-gate,332d696e-7075-4742-9d6f-722d67617465,rev?*%
%TF.SameCoordinates,Original*%
%TF.FileFunction,Copper,L2,Bot*%
%TF.FilePolarity,Positive*%
%FSLAX46Y46*%
G04 Gerber Fmt 4.6, Leading zero omitted, Abs format (unit mm)*
G04 Created by KiCad (PCBNEW (6.0.8)) date 2022-11-07 14:55:23*
%MOMM*%
%LPD*%
G01*
G04 APERTURE LIST*
%TA.AperFunction,ComponentPad*%
%ADD10C,3.302000*%
%TD*%
%TA.AperFunction,ViaPad*%
%ADD11C,0.800000*%
%TD*%
%TA.AperFunction,Conductor*%
%ADD12C,0.250000*%
%TD*%
G04 APERTURE END LIST*
D10*
%TO.P,,9*%
%TO.N,GND*%
X170080000Y-83590000D03*
%TD*%
D11*
%TO.N,GND*%
X148000000Y-96925000D03*
%TO.N,C*%
X147825000Y-99525000D03*
X150502597Y-97039500D03*
%TD*%
D12*
%TO.N,C*%
X148575000Y-97475000D02*
X148575000Y-98775000D01*
X150502597Y-97039500D02*
X149010500Y-97039500D01*
X149010500Y-97039500D02*
X148575000Y-97475000D01*
X148575000Y-98775000D02*
X147825000Y-99525000D01*
%TD*%
%TA.AperFunction,Conductor*%
%TO.N,GND*%
G36*
X169636851Y-80547188D02*
G01*
X169677852Y-80573123D01*
X170359236Y-81217832D01*
X170394971Y-81279180D01*
X170391866Y-81350109D01*
X170350907Y-81408099D01*
X170285098Y-81434739D01*
X170254885Y-81434100D01*
X170242744Y-81432372D01*
X170234195Y-81431744D01*
X169948404Y-81430247D01*
X169939870Y-81430784D01*
X169656517Y-81468089D01*
X169648119Y-81469782D01*
X169372457Y-81545195D01*
X169364370Y-81548011D01*
X169101496Y-81660136D01*
X169093857Y-81664029D01*
X168848632Y-81810792D01*
X168841603Y-81815677D01*
X168757629Y-81882954D01*
X168749160Y-81895078D01*
X168755555Y-81906345D01*
X170350115Y-83500905D01*
X170384141Y-83563217D01*
X170379076Y-83634032D01*
X170350115Y-83679095D01*
X170169095Y-83860115D01*
X170106783Y-83894141D01*
X170035968Y-83889076D01*
X169990905Y-83860115D01*
X168395617Y-82264827D01*
X168383607Y-82258269D01*
X168371867Y-82267237D01*
X168243300Y-82446157D01*
X168238788Y-82453433D01*
X168105052Y-82706017D01*
X168101573Y-82713831D01*
X168003356Y-82982220D01*
X168000967Y-82990443D01*
X167940083Y-83269684D01*
X167938834Y-83278140D01*
X167916410Y-83563068D01*
X167916321Y-83571619D01*
X167932772Y-83856940D01*
X167933845Y-83865439D01*
X167987662Y-84139742D01*
X167981149Y-84210439D01*
X167937448Y-84266392D01*
X167864019Y-84290000D01*
X152400000Y-84290000D01*
X152100000Y-84360000D01*
X152091273Y-84365402D01*
X152091274Y-84365402D01*
X151947382Y-84454478D01*
X151944624Y-84456061D01*
X151943196Y-84457013D01*
X151937642Y-84459962D01*
X151936843Y-84460618D01*
X151934452Y-84461364D01*
X151934952Y-84462172D01*
X151897060Y-84485629D01*
X151897057Y-84485631D01*
X151890000Y-84490000D01*
X151858375Y-84523734D01*
X151846470Y-84534887D01*
X151811759Y-84563412D01*
X151807779Y-84568303D01*
X151752571Y-84636139D01*
X151746767Y-84642782D01*
X151740000Y-84650000D01*
X151739084Y-84651628D01*
X151735846Y-84654102D01*
X151737112Y-84655133D01*
X151719846Y-84676349D01*
X151708910Y-84689787D01*
X151633186Y-84834058D01*
X151636997Y-84835595D01*
X151637000Y-84835950D01*
X151637000Y-84841000D01*
X151635774Y-84847118D01*
X151637000Y-84853606D01*
X151637000Y-99914834D01*
X151616998Y-99982955D01*
X151563342Y-100029448D01*
X151511708Y-100040832D01*
X150050206Y-100049027D01*
X148429047Y-100058117D01*
X148360816Y-100038497D01*
X148314023Y-99985103D01*
X148303525Y-99914887D01*
X148328378Y-99855416D01*
X148344507Y-99834396D01*
X148344509Y-99834392D01*
X148349536Y-99827841D01*
X148410044Y-99681762D01*
X148430682Y-99525000D01*
X148421882Y-99458159D01*
X148432821Y-99388011D01*
X148457709Y-99352618D01*
X148791222Y-99019105D01*
X148799326Y-99011678D01*
X148819750Y-98994540D01*
X148828194Y-98987455D01*
X148833704Y-98977912D01*
X148833707Y-98977908D01*
X148847036Y-98954821D01*
X148852941Y-98945551D01*
X148868232Y-98923713D01*
X148874554Y-98914684D01*
X148877407Y-98904036D01*
X148878886Y-98900865D01*
X148880078Y-98897589D01*
X148885588Y-98888045D01*
X148892134Y-98850924D01*
X148894508Y-98840217D01*
X148904263Y-98803807D01*
X148900979Y-98766269D01*
X148900500Y-98755288D01*
X148900500Y-97662016D01*
X148920502Y-97593895D01*
X148937405Y-97572921D01*
X149108421Y-97401905D01*
X149170733Y-97367879D01*
X149197516Y-97365000D01*
X149933311Y-97365000D01*
X150001432Y-97385002D01*
X150033274Y-97414296D01*
X150074315Y-97467782D01*
X150199756Y-97564036D01*
X150345835Y-97624544D01*
X150502597Y-97645182D01*
X150510785Y-97644104D01*
X150651171Y-97625622D01*
X150659359Y-97624544D01*
X150805438Y-97564036D01*
X150930879Y-97467782D01*
X151027133Y-97342341D01*
X151087641Y-97196262D01*
X151108279Y-97039500D01*
X151087641Y-96882738D01*
X151027133Y-96736659D01*
X150930879Y-96611218D01*
X150805438Y-96514964D01*
X150659359Y-96454456D01*
X150502597Y-96433818D01*
X150345835Y-96454456D01*
X150199756Y-96514964D01*
X150074315Y-96611218D01*
X150069292Y-96617764D01*
X150033274Y-96664704D01*
X149975936Y-96706571D01*
X149933311Y-96714000D01*
X149030210Y-96714000D01*
X149019228Y-96713520D01*
X148992680Y-96711197D01*
X148992678Y-96711197D01*
X148981693Y-96710236D01*
X148945285Y-96719992D01*
X148934558Y-96722370D01*
X148931199Y-96722962D01*
X148897455Y-96728912D01*
X148887910Y-96734423D01*
X148884634Y-96735615D01*
X148881466Y-96737092D01*
X148870816Y-96739946D01*
X148861785Y-96746270D01*
X148839956Y-96761555D01*
X148830685Y-96767461D01*
X148807594Y-96780793D01*
X148798045Y-96786306D01*
X148790959Y-96794751D01*
X148773815Y-96815182D01*
X148766389Y-96823285D01*
X148358785Y-97230889D01*
X148350681Y-97238316D01*
X148321806Y-97262545D01*
X148316293Y-97272094D01*
X148302961Y-97295185D01*
X148297055Y-97304456D01*
X148275446Y-97335316D01*
X148272592Y-97345966D01*
X148271115Y-97349134D01*
X148269923Y-97352410D01*
X148264412Y-97361955D01*
X148258462Y-97395699D01*
X148257870Y-97399058D01*
X148255492Y-97409785D01*
X148245736Y-97446193D01*
X148246697Y-97457178D01*
X148246697Y-97457180D01*
X148249020Y-97483728D01*
X148249500Y-97494710D01*
X148249500Y-98587983D01*
X148229498Y-98656104D01*
X148212595Y-98677078D01*
X147997382Y-98892291D01*
X147935070Y-98926317D01*
X147891842Y-98928118D01*
X147825000Y-98919318D01*
X147668238Y-98939956D01*
X147522159Y-99000464D01*
X147396718Y-99096718D01*
X147300464Y-99222159D01*
X147239956Y-99368238D01*
X147219318Y-99525000D01*
X147239956Y-99681762D01*
X147300464Y-99827841D01*
X147305491Y-99834392D01*
X147305493Y-99834396D01*
X147326792Y-99862154D01*
X147352392Y-99928375D01*
X147338127Y-99997923D01*
X147288525Y-100048719D01*
X147227536Y-100064855D01*
X147064017Y-100065772D01*
X146310841Y-100069995D01*
X146310820Y-100069995D01*
X146310000Y-100070000D01*
X146109902Y-100076455D01*
X146109855Y-100074770D01*
X146102814Y-100075827D01*
X146090693Y-100076928D01*
X146090080Y-100077032D01*
X146089859Y-100077004D01*
X146088201Y-100077155D01*
X146000000Y-100080000D01*
X145987220Y-100086816D01*
X145973819Y-100093963D01*
X145962588Y-100099259D01*
X145842538Y-100148793D01*
X145774468Y-100198811D01*
X145759155Y-100208450D01*
X145715984Y-100231475D01*
X145700000Y-100240000D01*
X145678550Y-100286475D01*
X145660948Y-100314328D01*
X145640511Y-100338853D01*
X145579445Y-100464514D01*
X145550323Y-100601158D01*
X145550570Y-100608790D01*
X145550570Y-100608794D01*
X145553600Y-100702277D01*
X145551242Y-100730953D01*
X145551000Y-100732169D01*
X145551000Y-100729802D01*
X145550765Y-100729235D01*
X145550000Y-100728918D01*
X145549235Y-100729235D01*
X145549000Y-100729802D01*
X145549000Y-101235153D01*
X145548889Y-101240443D01*
X145532186Y-101637965D01*
X145509342Y-101705186D01*
X145491710Y-101725306D01*
X144796189Y-102366631D01*
X144732550Y-102398104D01*
X144710776Y-102400000D01*
X142346000Y-102400000D01*
X142277879Y-102379998D01*
X142231386Y-102326342D01*
X142220000Y-102274000D01*
X142220000Y-101627000D01*
X142240002Y-101558879D01*
X142293658Y-101512386D01*
X142346000Y-101501000D01*
X144299802Y-101501000D01*
X144300000Y-101501082D01*
X144300765Y-101500765D01*
X144301000Y-101500198D01*
X144301082Y-101500000D01*
X144301000Y-101499802D01*
X144301000Y-100073713D01*
X146109703Y-100073713D01*
X146109844Y-100074647D01*
X146109813Y-100073694D01*
X146109703Y-100073713D01*
X144301000Y-100073713D01*
X144301000Y-92300198D01*
X144301082Y-92300000D01*
X144300765Y-92299235D01*
X144300198Y-92299000D01*
X144300000Y-92298918D01*
X144299802Y-92299000D01*
X144202623Y-92299000D01*
X144200779Y-92298987D01*
X142346915Y-92271857D01*
X142279095Y-92250860D01*
X142233392Y-92196530D01*
X142222789Y-92143101D01*
X142233455Y-91657782D01*
X142236830Y-91504231D01*
X142258324Y-91436567D01*
X142312989Y-91391264D01*
X142362800Y-91381000D01*
X143948666Y-91381000D01*
X143950214Y-91381010D01*
X146178548Y-91408385D01*
X146246418Y-91429222D01*
X146292248Y-91483445D01*
X146303000Y-91534375D01*
X146303000Y-92560593D01*
X146302477Y-92572060D01*
X146295357Y-92649977D01*
X146293820Y-92666791D01*
X146310985Y-92793891D01*
X146313485Y-92800541D01*
X146313486Y-92800545D01*
X146321612Y-92822161D01*
X146329658Y-92864792D01*
X146329754Y-92871883D01*
X146329755Y-92871887D01*
X146330000Y-92890000D01*
X146338388Y-92896402D01*
X146345596Y-92904110D01*
X146344905Y-92904756D01*
X146362470Y-92923536D01*
X146426934Y-93020873D01*
X146432081Y-93025769D01*
X146432082Y-93025771D01*
X146470788Y-93062594D01*
X146519855Y-93109275D01*
X146525965Y-93112897D01*
X146525969Y-93112900D01*
X146621586Y-93169582D01*
X146630181Y-93174677D01*
X146752332Y-93213773D01*
X146786382Y-93216653D01*
X146789556Y-93217102D01*
X146789235Y-93217235D01*
X146788918Y-93218000D01*
X146789235Y-93218765D01*
X146789802Y-93219000D01*
X146808796Y-93219000D01*
X146819417Y-93219448D01*
X146880130Y-93224584D01*
X146880031Y-93221082D01*
X146880786Y-93220743D01*
X146880921Y-93220390D01*
X146894689Y-93219000D01*
X147565139Y-93219000D01*
X147570860Y-93219130D01*
X147810000Y-93230000D01*
X147852765Y-93221447D01*
X147877476Y-93219000D01*
X147937699Y-93219000D01*
X147959741Y-93222072D01*
X147959363Y-93225106D01*
X148098160Y-93225313D01*
X148232859Y-93191831D01*
X148355406Y-93126663D01*
X148458475Y-93033704D01*
X148535906Y-92918513D01*
X148570717Y-92822161D01*
X148580440Y-92795249D01*
X148580441Y-92795246D01*
X148583068Y-92787974D01*
X148590269Y-92717333D01*
X148601357Y-92679987D01*
X148602649Y-92674270D01*
X148610000Y-92660000D01*
X148597813Y-92270000D01*
X148591061Y-92053952D01*
X148591000Y-92050016D01*
X148591000Y-91826000D01*
X148611002Y-91757879D01*
X148664658Y-91711386D01*
X148717000Y-91700000D01*
X150740000Y-91700000D01*
X150740006Y-91697448D01*
X150757029Y-91695000D01*
X150775198Y-91695000D01*
X150775765Y-91694765D01*
X150776082Y-91694000D01*
X150775765Y-91693235D01*
X150775198Y-91693000D01*
X150769823Y-91693000D01*
X150771174Y-91691911D01*
X150772888Y-91675987D01*
X150774000Y-91668719D01*
X150774000Y-91670198D01*
X150774235Y-91670765D01*
X150775000Y-91671082D01*
X150775765Y-91670765D01*
X150776000Y-91670198D01*
X150776000Y-83552000D01*
X150796002Y-83483879D01*
X150849658Y-83437386D01*
X150902000Y-83426000D01*
X157597784Y-83426000D01*
X157598263Y-83426001D01*
X166540000Y-83460000D01*
X166574880Y-83426035D01*
X166578337Y-83429585D01*
X166578993Y-83428772D01*
X166575845Y-83425571D01*
X166624030Y-83378176D01*
X166624482Y-83377734D01*
X168159525Y-81882954D01*
X169503350Y-80574377D01*
X169566109Y-80541182D01*
X169636851Y-80547188D01*
G37*
%TD.AperFunction*%
%TD*%
M02*
