%TF.GenerationSoftware,KiCad,Pcbnew,(6.0.8)*%
%TF.CreationDate,2022-11-07T16:33:32-05:00*%
%TF.ProjectId,3-input-or-gate,332d696e-7075-4742-9d6f-722d67617465,rev?*%
%TF.SameCoordinates,Original*%
%TF.FileFunction,Profile,NP*%
%FSLAX46Y46*%
G04 Gerber Fmt 4.6, Leading zero omitted, Abs format (unit mm)*
G04 Created by KiCad (PCBNEW (6.0.8)) date 2022-11-07 16:33:32*
%MOMM*%
%LPD*%
G01*
G04 APERTURE LIST*
%TA.AperFunction,Profile*%
%ADD10C,0.100000*%
%TD*%
%TA.AperFunction,Profile*%
%ADD11C,0.083820*%
%TD*%
%TA.AperFunction,Profile*%
%ADD12C,0.150000*%
%TD*%
%TA.AperFunction,Profile*%
%ADD13C,0.088900*%
%TD*%
G04 APERTURE END LIST*
D10*
X144760000Y-102420000D02*
X142200000Y-102420000D01*
X144760000Y-102420000D02*
X145550000Y-101730000D01*
X148590000Y-92690000D02*
X148590000Y-91694000D01*
X168030000Y-84328000D02*
X152400000Y-84328000D01*
D11*
X146109999Y-100079981D02*
G75*
G03*
X145560000Y-100740000I15901J-572419D01*
G01*
D10*
X151638000Y-84836000D02*
X151638000Y-100076000D01*
D12*
X169625000Y-80425000D02*
X173300000Y-83850000D01*
X173300000Y-83850000D02*
X170450000Y-86750000D01*
D13*
X146790000Y-93218000D02*
X148060000Y-93218000D01*
D10*
X146304000Y-91390000D02*
X146304000Y-92700000D01*
D12*
X166575000Y-83425000D02*
X169625000Y-80425000D01*
D10*
X151638000Y-100076000D02*
X146110000Y-100080000D01*
X142200000Y-91380000D02*
X146300000Y-91380000D01*
X145550000Y-100730000D02*
X145550000Y-101730000D01*
D12*
X150775000Y-83425000D02*
X166575000Y-83425000D01*
D10*
X144300000Y-101500000D02*
X144300000Y-92300000D01*
X144300000Y-92300000D02*
X142200000Y-92300000D01*
X142197000Y-101500000D02*
X144300000Y-101500000D01*
X148590000Y-91694000D02*
X150775000Y-91694000D01*
D12*
X170450000Y-86750000D02*
X168050000Y-84340000D01*
D10*
X142200000Y-102420000D02*
X142197000Y-101500000D01*
X142200000Y-92300000D02*
X142200000Y-91400000D01*
D13*
X147959999Y-93220008D02*
G75*
G03*
X148592006Y-92650000I69601J558208D01*
G01*
D12*
X150775000Y-91670000D02*
X150775000Y-83425000D01*
D13*
X146309983Y-92539996D02*
G75*
G03*
X146880000Y-93220000I554017J-114504D01*
G01*
D10*
X152400000Y-84328000D02*
G75*
G03*
X151638000Y-84836000I-9200J-811700D01*
G01*
M02*
