%TF.GenerationSoftware,KiCad,Pcbnew,(6.0.8)*%
%TF.CreationDate,2022-11-07T16:33:32-05:00*%
%TF.ProjectId,3-input-or-gate,332d696e-7075-4742-9d6f-722d67617465,rev?*%
%TF.SameCoordinates,Original*%
%TF.FileFunction,Legend,Top*%
%TF.FilePolarity,Positive*%
%FSLAX46Y46*%
G04 Gerber Fmt 4.6, Leading zero omitted, Abs format (unit mm)*
G04 Created by KiCad (PCBNEW (6.0.8)) date 2022-11-07 16:33:32*
%MOMM*%
%LPD*%
G01*
G04 APERTURE LIST*
%ADD10C,0.063500*%
%ADD11C,0.150000*%
%ADD12C,0.120000*%
G04 APERTURE END LIST*
D10*
X151273000Y-94708523D02*
X151260904Y-94732714D01*
X151260904Y-94769000D01*
X151273000Y-94805285D01*
X151297190Y-94829476D01*
X151321380Y-94841571D01*
X151369761Y-94853666D01*
X151406047Y-94853666D01*
X151454428Y-94841571D01*
X151478619Y-94829476D01*
X151502809Y-94805285D01*
X151514904Y-94769000D01*
X151514904Y-94744809D01*
X151502809Y-94708523D01*
X151490714Y-94696428D01*
X151406047Y-94696428D01*
X151406047Y-94744809D01*
X151514904Y-94587571D02*
X151260904Y-94587571D01*
X151514904Y-94442428D01*
X151260904Y-94442428D01*
X151514904Y-94321476D02*
X151260904Y-94321476D01*
X151260904Y-94261000D01*
X151273000Y-94224714D01*
X151297190Y-94200523D01*
X151321380Y-94188428D01*
X151369761Y-94176333D01*
X151406047Y-94176333D01*
X151454428Y-94188428D01*
X151478619Y-94200523D01*
X151502809Y-94224714D01*
X151514904Y-94261000D01*
X151514904Y-94321476D01*
X146534761Y-98525904D02*
X146619428Y-98779904D01*
X146704095Y-98525904D01*
X146933904Y-98755714D02*
X146921809Y-98767809D01*
X146885523Y-98779904D01*
X146861333Y-98779904D01*
X146825047Y-98767809D01*
X146800857Y-98743619D01*
X146788761Y-98719428D01*
X146776666Y-98671047D01*
X146776666Y-98634761D01*
X146788761Y-98586380D01*
X146800857Y-98562190D01*
X146825047Y-98538000D01*
X146861333Y-98525904D01*
X146885523Y-98525904D01*
X146921809Y-98538000D01*
X146933904Y-98550095D01*
X147187904Y-98755714D02*
X147175809Y-98767809D01*
X147139523Y-98779904D01*
X147115333Y-98779904D01*
X147079047Y-98767809D01*
X147054857Y-98743619D01*
X147042761Y-98719428D01*
X147030666Y-98671047D01*
X147030666Y-98634761D01*
X147042761Y-98586380D01*
X147054857Y-98562190D01*
X147079047Y-98538000D01*
X147115333Y-98525904D01*
X147139523Y-98525904D01*
X147175809Y-98538000D01*
X147187904Y-98550095D01*
X147611238Y-98525904D02*
X147490285Y-98525904D01*
X147478190Y-98646857D01*
X147490285Y-98634761D01*
X147514476Y-98622666D01*
X147574952Y-98622666D01*
X147599142Y-98634761D01*
X147611238Y-98646857D01*
X147623333Y-98671047D01*
X147623333Y-98731523D01*
X147611238Y-98755714D01*
X147599142Y-98767809D01*
X147574952Y-98779904D01*
X147514476Y-98779904D01*
X147490285Y-98767809D01*
X147478190Y-98755714D01*
X147695904Y-98525904D02*
X147780571Y-98779904D01*
X147865238Y-98525904D01*
X145808619Y-99955714D02*
X145796523Y-99967809D01*
X145760238Y-99979904D01*
X145736047Y-99979904D01*
X145699761Y-99967809D01*
X145675571Y-99943619D01*
X145663476Y-99919428D01*
X145651380Y-99871047D01*
X145651380Y-99834761D01*
X145663476Y-99786380D01*
X145675571Y-99762190D01*
X145699761Y-99738000D01*
X145736047Y-99725904D01*
X145760238Y-99725904D01*
X145796523Y-99738000D01*
X145808619Y-99750095D01*
X149339523Y-94257333D02*
X149460476Y-94257333D01*
X149315333Y-94329904D02*
X149400000Y-94075904D01*
X149484666Y-94329904D01*
X144485095Y-100034428D02*
X144739095Y-100034428D01*
X144739095Y-100131190D01*
X144727000Y-100155380D01*
X144714904Y-100167476D01*
X144690714Y-100179571D01*
X144654428Y-100179571D01*
X144630238Y-100167476D01*
X144618142Y-100155380D01*
X144606047Y-100131190D01*
X144606047Y-100034428D01*
X144485095Y-100288428D02*
X144654428Y-100288428D01*
X144739095Y-100288428D02*
X144727000Y-100276333D01*
X144714904Y-100288428D01*
X144727000Y-100300523D01*
X144739095Y-100288428D01*
X144714904Y-100288428D01*
X144654428Y-100409380D02*
X144485095Y-100409380D01*
X144630238Y-100409380D02*
X144642333Y-100421476D01*
X144654428Y-100445666D01*
X144654428Y-100481952D01*
X144642333Y-100506142D01*
X144618142Y-100518238D01*
X144485095Y-100518238D01*
X144714904Y-100820619D02*
X144727000Y-100832714D01*
X144739095Y-100856904D01*
X144739095Y-100917380D01*
X144727000Y-100941571D01*
X144714904Y-100953666D01*
X144690714Y-100965761D01*
X144666523Y-100965761D01*
X144630238Y-100953666D01*
X144485095Y-100808523D01*
X144485095Y-100965761D01*
X144630238Y-101110904D02*
X144642333Y-101086714D01*
X144654428Y-101074619D01*
X144678619Y-101062523D01*
X144690714Y-101062523D01*
X144714904Y-101074619D01*
X144727000Y-101086714D01*
X144739095Y-101110904D01*
X144739095Y-101159285D01*
X144727000Y-101183476D01*
X144714904Y-101195571D01*
X144690714Y-101207666D01*
X144678619Y-101207666D01*
X144654428Y-101195571D01*
X144642333Y-101183476D01*
X144630238Y-101159285D01*
X144630238Y-101110904D01*
X144618142Y-101086714D01*
X144606047Y-101074619D01*
X144581857Y-101062523D01*
X144533476Y-101062523D01*
X144509285Y-101074619D01*
X144497190Y-101086714D01*
X144485095Y-101110904D01*
X144485095Y-101159285D01*
X144497190Y-101183476D01*
X144509285Y-101195571D01*
X144533476Y-101207666D01*
X144581857Y-101207666D01*
X144606047Y-101195571D01*
X144618142Y-101183476D01*
X144630238Y-101159285D01*
X150418142Y-94196857D02*
X150454428Y-94208952D01*
X150466523Y-94221047D01*
X150478619Y-94245238D01*
X150478619Y-94281523D01*
X150466523Y-94305714D01*
X150454428Y-94317809D01*
X150430238Y-94329904D01*
X150333476Y-94329904D01*
X150333476Y-94075904D01*
X150418142Y-94075904D01*
X150442333Y-94088000D01*
X150454428Y-94100095D01*
X150466523Y-94124285D01*
X150466523Y-94148476D01*
X150454428Y-94172666D01*
X150442333Y-94184761D01*
X150418142Y-94196857D01*
X150333476Y-94196857D01*
X144485095Y-92634428D02*
X144739095Y-92634428D01*
X144739095Y-92731190D01*
X144727000Y-92755380D01*
X144714904Y-92767476D01*
X144690714Y-92779571D01*
X144654428Y-92779571D01*
X144630238Y-92767476D01*
X144618142Y-92755380D01*
X144606047Y-92731190D01*
X144606047Y-92634428D01*
X144485095Y-92888428D02*
X144654428Y-92888428D01*
X144739095Y-92888428D02*
X144727000Y-92876333D01*
X144714904Y-92888428D01*
X144727000Y-92900523D01*
X144739095Y-92888428D01*
X144714904Y-92888428D01*
X144654428Y-93009380D02*
X144485095Y-93009380D01*
X144630238Y-93009380D02*
X144642333Y-93021476D01*
X144654428Y-93045666D01*
X144654428Y-93081952D01*
X144642333Y-93106142D01*
X144618142Y-93118238D01*
X144485095Y-93118238D01*
X144714904Y-93420619D02*
X144727000Y-93432714D01*
X144739095Y-93456904D01*
X144739095Y-93517380D01*
X144727000Y-93541571D01*
X144714904Y-93553666D01*
X144690714Y-93565761D01*
X144666523Y-93565761D01*
X144630238Y-93553666D01*
X144485095Y-93408523D01*
X144485095Y-93565761D01*
X144739095Y-93723000D02*
X144739095Y-93747190D01*
X144727000Y-93771380D01*
X144714904Y-93783476D01*
X144690714Y-93795571D01*
X144642333Y-93807666D01*
X144581857Y-93807666D01*
X144533476Y-93795571D01*
X144509285Y-93783476D01*
X144497190Y-93771380D01*
X144485095Y-93747190D01*
X144485095Y-93723000D01*
X144497190Y-93698809D01*
X144509285Y-93686714D01*
X144533476Y-93674619D01*
X144581857Y-93662523D01*
X144642333Y-93662523D01*
X144690714Y-93674619D01*
X144714904Y-93686714D01*
X144727000Y-93698809D01*
X144739095Y-93723000D01*
%TO.C,R1*%
X145114904Y-96557333D02*
X144993952Y-96642000D01*
X145114904Y-96702476D02*
X144860904Y-96702476D01*
X144860904Y-96605714D01*
X144873000Y-96581523D01*
X144885095Y-96569428D01*
X144909285Y-96557333D01*
X144945571Y-96557333D01*
X144969761Y-96569428D01*
X144981857Y-96581523D01*
X144993952Y-96605714D01*
X144993952Y-96702476D01*
X145114904Y-96315428D02*
X145114904Y-96460571D01*
X145114904Y-96388000D02*
X144860904Y-96388000D01*
X144897190Y-96412190D01*
X144921380Y-96436380D01*
X144933476Y-96460571D01*
D11*
%TO.C,*%
D10*
%TO.C,C2*%
X149932666Y-99405714D02*
X149920571Y-99417809D01*
X149884285Y-99429904D01*
X149860095Y-99429904D01*
X149823809Y-99417809D01*
X149799619Y-99393619D01*
X149787523Y-99369428D01*
X149775428Y-99321047D01*
X149775428Y-99284761D01*
X149787523Y-99236380D01*
X149799619Y-99212190D01*
X149823809Y-99188000D01*
X149860095Y-99175904D01*
X149884285Y-99175904D01*
X149920571Y-99188000D01*
X149932666Y-99200095D01*
X150029428Y-99200095D02*
X150041523Y-99188000D01*
X150065714Y-99175904D01*
X150126190Y-99175904D01*
X150150380Y-99188000D01*
X150162476Y-99200095D01*
X150174571Y-99224285D01*
X150174571Y-99248476D01*
X150162476Y-99284761D01*
X150017333Y-99429904D01*
X150174571Y-99429904D01*
%TO.C,R2*%
X146894904Y-97007333D02*
X146773952Y-97092000D01*
X146894904Y-97152476D02*
X146640904Y-97152476D01*
X146640904Y-97055714D01*
X146653000Y-97031523D01*
X146665095Y-97019428D01*
X146689285Y-97007333D01*
X146725571Y-97007333D01*
X146749761Y-97019428D01*
X146761857Y-97031523D01*
X146773952Y-97055714D01*
X146773952Y-97152476D01*
X146665095Y-96910571D02*
X146653000Y-96898476D01*
X146640904Y-96874285D01*
X146640904Y-96813809D01*
X146653000Y-96789619D01*
X146665095Y-96777523D01*
X146689285Y-96765428D01*
X146713476Y-96765428D01*
X146749761Y-96777523D01*
X146894904Y-96922666D01*
X146894904Y-96765428D01*
D11*
%TO.C,*%
D10*
%TO.C,C1*%
X147282666Y-93915714D02*
X147270571Y-93927809D01*
X147234285Y-93939904D01*
X147210095Y-93939904D01*
X147173809Y-93927809D01*
X147149619Y-93903619D01*
X147137523Y-93879428D01*
X147125428Y-93831047D01*
X147125428Y-93794761D01*
X147137523Y-93746380D01*
X147149619Y-93722190D01*
X147173809Y-93698000D01*
X147210095Y-93685904D01*
X147234285Y-93685904D01*
X147270571Y-93698000D01*
X147282666Y-93710095D01*
X147524571Y-93939904D02*
X147379428Y-93939904D01*
X147452000Y-93939904D02*
X147452000Y-93685904D01*
X147427809Y-93722190D01*
X147403619Y-93746380D01*
X147379428Y-93758476D01*
D11*
%TO.C,*%
D12*
%TO.C,R1*%
X145510000Y-96680580D02*
X145510000Y-96399420D01*
X144490000Y-96680580D02*
X144490000Y-96399420D01*
%TO.C,U5*%
X147950000Y-95845000D02*
X147950000Y-97445000D01*
X151150000Y-97445000D02*
X151150000Y-95145000D01*
X150578489Y-96136512D02*
G75*
G03*
X150578489Y-96136512I-98489J0D01*
G01*
%TO.C,C2*%
X149834420Y-98805000D02*
X150115580Y-98805000D01*
X149834420Y-99825000D02*
X150115580Y-99825000D01*
%TO.C,R2*%
X147290000Y-96824420D02*
X147290000Y-97105580D01*
X146270000Y-96824420D02*
X146270000Y-97105580D01*
%TO.C,C1*%
X147184420Y-93365000D02*
X147465580Y-93365000D01*
X147184420Y-94385000D02*
X147465580Y-94385000D01*
%TD*%
M02*
