%TF.GenerationSoftware,KiCad,Pcbnew,(6.0.8)*%
%TF.CreationDate,2022-11-07T16:24:00-05:00*%
%TF.ProjectId,3-input-or-gate,332d696e-7075-4742-9d6f-722d67617465,rev?*%
%TF.SameCoordinates,Original*%
%TF.FileFunction,Copper,L2,Bot*%
%TF.FilePolarity,Positive*%
%FSLAX46Y46*%
G04 Gerber Fmt 4.6, Leading zero omitted, Abs format (unit mm)*
G04 Created by KiCad (PCBNEW (6.0.8)) date 2022-11-07 16:24:00*
%MOMM*%
%LPD*%
G01*
G04 APERTURE LIST*
%TA.AperFunction,ViaPad*%
%ADD10C,0.800000*%
%TD*%
%TA.AperFunction,Conductor*%
%ADD11C,0.250000*%
%TD*%
G04 APERTURE END LIST*
D10*
%TO.N,C*%
X150529062Y-96869500D03*
%TO.N,VCC5V*%
X145335000Y-99350000D03*
X146420000Y-94950000D03*
%TO.N,GND*%
X148000000Y-96925000D03*
%TO.N,C*%
X148040000Y-99359500D03*
%TD*%
D11*
%TO.N,C*%
X148575000Y-98824500D02*
X148040000Y-99359500D01*
X149180500Y-96869500D02*
X148575000Y-97475000D01*
X150529062Y-96869500D02*
X149180500Y-96869500D01*
X148575000Y-97475000D02*
X148575000Y-98824500D01*
%TO.N,VCC5V*%
X146420000Y-98265000D02*
X146420000Y-94950000D01*
X145335000Y-99350000D02*
X146420000Y-98265000D01*
%TD*%
%TA.AperFunction,Conductor*%
%TO.N,GND*%
G36*
X146224517Y-91401002D02*
G01*
X146271010Y-91454658D01*
X146282373Y-91504600D01*
X146287403Y-91768658D01*
X146297844Y-92316769D01*
X146299939Y-92426775D01*
X146299896Y-92433220D01*
X146290000Y-92740000D01*
X146295035Y-92752307D01*
X146295035Y-92752309D01*
X146308050Y-92784122D01*
X146310792Y-92792464D01*
X146310985Y-92793891D01*
X146356117Y-92913943D01*
X146360039Y-92919865D01*
X146360041Y-92919869D01*
X146362443Y-92923495D01*
X146374009Y-92945355D01*
X146380000Y-92960000D01*
X146391039Y-92969659D01*
X146399448Y-92981435D01*
X146405085Y-92987882D01*
X146426934Y-93020873D01*
X146432081Y-93025769D01*
X146432082Y-93025771D01*
X146470788Y-93062594D01*
X146519855Y-93109275D01*
X146525965Y-93112897D01*
X146525969Y-93112900D01*
X146621586Y-93169582D01*
X146630181Y-93174677D01*
X146752332Y-93213773D01*
X146786382Y-93216653D01*
X146789556Y-93217102D01*
X146789235Y-93217235D01*
X146788918Y-93218000D01*
X146789235Y-93218765D01*
X146789802Y-93219000D01*
X146808796Y-93219000D01*
X146819417Y-93219448D01*
X146880130Y-93224584D01*
X146880031Y-93221082D01*
X146880786Y-93220743D01*
X146880921Y-93220390D01*
X146894689Y-93219000D01*
X147937699Y-93219000D01*
X147959741Y-93222072D01*
X147959363Y-93225106D01*
X148098160Y-93225313D01*
X148232859Y-93191831D01*
X148355406Y-93126663D01*
X148458475Y-93033704D01*
X148535906Y-92918513D01*
X148583068Y-92787974D01*
X148586704Y-92752309D01*
X148595306Y-92667917D01*
X148595306Y-92667916D01*
X148597143Y-92649892D01*
X148593088Y-92649977D01*
X148592755Y-92649219D01*
X148592472Y-92649109D01*
X148591000Y-92633156D01*
X148591000Y-92112297D01*
X148591026Y-92109726D01*
X148596971Y-91818429D01*
X148618359Y-91750731D01*
X148672952Y-91705342D01*
X148722945Y-91695000D01*
X151484469Y-91695000D01*
X151552590Y-91715002D01*
X151599083Y-91768658D01*
X151610468Y-91820548D01*
X151630427Y-97389009D01*
X151636999Y-99222721D01*
X151637000Y-99223173D01*
X151637000Y-99934000D01*
X151616998Y-100002121D01*
X151563342Y-100048614D01*
X151511000Y-100060000D01*
X148484705Y-100060000D01*
X148416584Y-100039998D01*
X148370091Y-99986342D01*
X148359987Y-99916068D01*
X148389481Y-99851488D01*
X148408001Y-99834037D01*
X148461736Y-99792805D01*
X148468282Y-99787782D01*
X148480595Y-99771736D01*
X148559509Y-99668892D01*
X148564536Y-99662341D01*
X148625044Y-99516262D01*
X148645682Y-99359500D01*
X148636882Y-99292659D01*
X148647821Y-99222511D01*
X148672709Y-99187118D01*
X148791222Y-99068605D01*
X148799326Y-99061178D01*
X148828194Y-99036955D01*
X148833704Y-99027412D01*
X148833707Y-99027408D01*
X148847036Y-99004321D01*
X148852941Y-98995051D01*
X148868232Y-98973213D01*
X148874554Y-98964184D01*
X148877407Y-98953536D01*
X148878886Y-98950365D01*
X148880078Y-98947089D01*
X148885588Y-98937545D01*
X148892134Y-98900424D01*
X148894508Y-98889717D01*
X148904263Y-98853307D01*
X148900979Y-98815769D01*
X148900500Y-98804788D01*
X148900500Y-97662017D01*
X148920502Y-97593896D01*
X148937405Y-97572921D01*
X149278423Y-97231904D01*
X149340735Y-97197879D01*
X149367518Y-97195000D01*
X149959776Y-97195000D01*
X150027897Y-97215002D01*
X150059739Y-97244296D01*
X150100780Y-97297782D01*
X150226221Y-97394036D01*
X150372300Y-97454544D01*
X150380488Y-97455622D01*
X150450681Y-97464863D01*
X150529062Y-97475182D01*
X150537250Y-97474104D01*
X150677636Y-97455622D01*
X150685824Y-97454544D01*
X150831903Y-97394036D01*
X150957344Y-97297782D01*
X151053598Y-97172341D01*
X151114106Y-97026262D01*
X151134744Y-96869500D01*
X151114106Y-96712738D01*
X151053598Y-96566659D01*
X150957344Y-96441218D01*
X150831903Y-96344964D01*
X150685824Y-96284456D01*
X150529062Y-96263818D01*
X150372300Y-96284456D01*
X150226221Y-96344964D01*
X150100780Y-96441218D01*
X150095757Y-96447764D01*
X150059739Y-96494704D01*
X150002401Y-96536571D01*
X149959776Y-96544000D01*
X149200210Y-96544000D01*
X149189228Y-96543520D01*
X149162675Y-96541197D01*
X149162670Y-96541197D01*
X149151693Y-96540237D01*
X149115283Y-96549992D01*
X149104576Y-96552366D01*
X149067455Y-96558912D01*
X149057911Y-96564422D01*
X149054635Y-96565614D01*
X149051464Y-96567093D01*
X149040816Y-96569946D01*
X149031787Y-96576268D01*
X149009949Y-96591559D01*
X149000679Y-96597464D01*
X148977592Y-96610793D01*
X148977588Y-96610796D01*
X148968045Y-96616306D01*
X148960960Y-96624750D01*
X148943825Y-96645170D01*
X148936400Y-96653273D01*
X148358778Y-97230896D01*
X148350674Y-97238322D01*
X148321806Y-97262545D01*
X148316293Y-97272094D01*
X148302961Y-97295185D01*
X148297055Y-97304456D01*
X148275446Y-97335316D01*
X148272592Y-97345966D01*
X148271115Y-97349134D01*
X148269923Y-97352410D01*
X148264412Y-97361955D01*
X148259642Y-97389009D01*
X148257870Y-97399058D01*
X148255492Y-97409785D01*
X148245736Y-97446193D01*
X148246697Y-97457178D01*
X148246697Y-97457180D01*
X148249020Y-97483728D01*
X148249500Y-97494710D01*
X148249500Y-98637483D01*
X148229498Y-98705604D01*
X148212595Y-98726578D01*
X148212382Y-98726791D01*
X148150070Y-98760817D01*
X148106842Y-98762618D01*
X148040000Y-98753818D01*
X147883238Y-98774456D01*
X147737159Y-98834964D01*
X147611718Y-98931218D01*
X147515464Y-99056659D01*
X147454956Y-99202738D01*
X147434318Y-99359500D01*
X147454956Y-99516262D01*
X147515464Y-99662341D01*
X147520491Y-99668892D01*
X147599406Y-99771736D01*
X147611718Y-99787782D01*
X147618264Y-99792805D01*
X147671999Y-99834037D01*
X147713866Y-99891375D01*
X147718088Y-99962246D01*
X147683324Y-100024149D01*
X147620612Y-100057430D01*
X147595295Y-100060000D01*
X146100000Y-100060000D01*
X146089122Y-100064211D01*
X146089121Y-100064211D01*
X146068561Y-100072170D01*
X146036249Y-100084678D01*
X146010894Y-100091556D01*
X145981948Y-100096240D01*
X145975598Y-100098754D01*
X145975599Y-100098754D01*
X145867910Y-100141393D01*
X145867908Y-100141394D01*
X145861559Y-100143908D01*
X145855895Y-100147730D01*
X145844148Y-100155656D01*
X145819158Y-100168713D01*
X145790000Y-100180000D01*
X145780051Y-100191119D01*
X145780050Y-100191120D01*
X145769945Y-100202414D01*
X145758823Y-100213229D01*
X145754225Y-100216331D01*
X145664960Y-100310126D01*
X145661426Y-100315968D01*
X145653057Y-100329801D01*
X145639151Y-100348596D01*
X145620000Y-100370000D01*
X145600003Y-100417493D01*
X145599267Y-100417183D01*
X145598791Y-100419496D01*
X145597935Y-100420911D01*
X145595735Y-100427386D01*
X145595090Y-100428771D01*
X145593572Y-100432766D01*
X145540000Y-100560000D01*
X145540000Y-101635381D01*
X145519998Y-101703502D01*
X145500138Y-101727339D01*
X144798085Y-102384958D01*
X144734695Y-102416930D01*
X144711947Y-102419000D01*
X142343143Y-102419000D01*
X142275022Y-102398998D01*
X142228529Y-102345342D01*
X142217172Y-102295655D01*
X142203151Y-101629650D01*
X142221714Y-101561125D01*
X142274379Y-101513513D01*
X142329122Y-101501000D01*
X144299802Y-101501000D01*
X144300000Y-101501082D01*
X144300765Y-101500765D01*
X144301000Y-101500198D01*
X144301082Y-101500000D01*
X144301000Y-101499802D01*
X144301000Y-100564000D01*
X144302325Y-99350000D01*
X144729318Y-99350000D01*
X144749956Y-99506762D01*
X144810464Y-99652841D01*
X144906718Y-99778282D01*
X145032159Y-99874536D01*
X145178238Y-99935044D01*
X145335000Y-99955682D01*
X145343188Y-99954604D01*
X145483574Y-99936122D01*
X145491762Y-99935044D01*
X145637841Y-99874536D01*
X145763282Y-99778282D01*
X145859536Y-99652841D01*
X145920044Y-99506762D01*
X145940682Y-99350000D01*
X145931882Y-99283157D01*
X145942821Y-99213010D01*
X145967709Y-99177617D01*
X146636215Y-98509111D01*
X146644319Y-98501684D01*
X146664749Y-98484541D01*
X146673194Y-98477455D01*
X146678707Y-98467906D01*
X146692039Y-98444815D01*
X146697945Y-98435544D01*
X146713230Y-98413715D01*
X146719554Y-98404684D01*
X146722408Y-98394034D01*
X146723885Y-98390866D01*
X146725077Y-98387590D01*
X146730588Y-98378045D01*
X146737130Y-98340942D01*
X146739509Y-98330210D01*
X146749264Y-98293807D01*
X146745979Y-98256257D01*
X146745500Y-98245276D01*
X146745500Y-95519286D01*
X146765502Y-95451165D01*
X146794796Y-95419323D01*
X146841736Y-95383305D01*
X146848282Y-95378282D01*
X146944536Y-95252841D01*
X147005044Y-95106762D01*
X147025682Y-94950000D01*
X147005044Y-94793238D01*
X146944536Y-94647159D01*
X146848282Y-94521718D01*
X146722841Y-94425464D01*
X146576762Y-94364956D01*
X146420000Y-94344318D01*
X146263238Y-94364956D01*
X146117159Y-94425464D01*
X145991718Y-94521718D01*
X145895464Y-94647159D01*
X145834956Y-94793238D01*
X145814318Y-94950000D01*
X145834956Y-95106762D01*
X145895464Y-95252841D01*
X145991718Y-95378282D01*
X145998264Y-95383305D01*
X146045204Y-95419323D01*
X146087071Y-95476661D01*
X146094500Y-95519286D01*
X146094500Y-98077984D01*
X146074498Y-98146105D01*
X146057595Y-98167079D01*
X145507383Y-98717291D01*
X145445071Y-98751317D01*
X145401843Y-98753118D01*
X145335000Y-98744318D01*
X145178238Y-98764956D01*
X145032159Y-98825464D01*
X144906718Y-98921718D01*
X144901695Y-98928264D01*
X144884911Y-98950138D01*
X144810464Y-99047159D01*
X144749956Y-99193238D01*
X144748878Y-99201426D01*
X144746015Y-99223173D01*
X144729318Y-99350000D01*
X144302325Y-99350000D01*
X144302464Y-99222721D01*
X144310000Y-92320000D01*
X144304668Y-92319949D01*
X144303738Y-92316769D01*
X144303166Y-92310346D01*
X144301000Y-92307659D01*
X144301000Y-92300198D01*
X144301082Y-92300000D01*
X144300765Y-92299235D01*
X144300198Y-92299000D01*
X144300000Y-92298918D01*
X144299802Y-92299000D01*
X142333268Y-92299000D01*
X142265147Y-92278998D01*
X142218654Y-92225342D01*
X142207299Y-92175741D01*
X142201030Y-91887380D01*
X142201000Y-91884642D01*
X142201000Y-91507000D01*
X142221002Y-91438879D01*
X142274658Y-91392386D01*
X142327000Y-91381000D01*
X146156396Y-91381000D01*
X146224517Y-91401002D01*
G37*
%TD.AperFunction*%
%TD*%
M02*
