%TF.GenerationSoftware,KiCad,Pcbnew,(6.0.8)*%
%TF.CreationDate,2022-11-07T16:24:00-05:00*%
%TF.ProjectId,3-input-or-gate,332d696e-7075-4742-9d6f-722d67617465,rev?*%
%TF.SameCoordinates,Original*%
%TF.FileFunction,Legend,Bot*%
%TF.FilePolarity,Positive*%
%FSLAX46Y46*%
G04 Gerber Fmt 4.6, Leading zero omitted, Abs format (unit mm)*
G04 Created by KiCad (PCBNEW (6.0.8)) date 2022-11-07 16:24:00*
%MOMM*%
%LPD*%
G01*
G04 APERTURE LIST*
%ADD10C,0.063500*%
G04 APERTURE END LIST*
D10*
X151099095Y-98489047D02*
X151099095Y-98331809D01*
X151002333Y-98416476D01*
X151002333Y-98380190D01*
X150990238Y-98356000D01*
X150978142Y-98343904D01*
X150953952Y-98331809D01*
X150893476Y-98331809D01*
X150869285Y-98343904D01*
X150857190Y-98356000D01*
X150845095Y-98380190D01*
X150845095Y-98452761D01*
X150857190Y-98476952D01*
X150869285Y-98489047D01*
X150845095Y-98029428D02*
X151099095Y-98029428D01*
X151014428Y-97908476D02*
X150845095Y-97908476D01*
X150990238Y-97908476D02*
X151002333Y-97896380D01*
X151014428Y-97872190D01*
X151014428Y-97835904D01*
X151002333Y-97811714D01*
X150978142Y-97799619D01*
X150845095Y-97799619D01*
X151014428Y-97678666D02*
X150760428Y-97678666D01*
X151002333Y-97678666D02*
X151014428Y-97654476D01*
X151014428Y-97606095D01*
X151002333Y-97581904D01*
X150990238Y-97569809D01*
X150966047Y-97557714D01*
X150893476Y-97557714D01*
X150869285Y-97569809D01*
X150857190Y-97581904D01*
X150845095Y-97606095D01*
X150845095Y-97654476D01*
X150857190Y-97678666D01*
X151014428Y-97340000D02*
X150845095Y-97340000D01*
X151014428Y-97448857D02*
X150881380Y-97448857D01*
X150857190Y-97436761D01*
X150845095Y-97412571D01*
X150845095Y-97376285D01*
X150857190Y-97352095D01*
X150869285Y-97340000D01*
X151014428Y-97255333D02*
X151014428Y-97158571D01*
X151099095Y-97219047D02*
X150881380Y-97219047D01*
X150857190Y-97206952D01*
X150845095Y-97182761D01*
X150845095Y-97158571D01*
X151099095Y-96832000D02*
X151099095Y-96783619D01*
X151087000Y-96759428D01*
X151062809Y-96735238D01*
X151014428Y-96723142D01*
X150929761Y-96723142D01*
X150881380Y-96735238D01*
X150857190Y-96759428D01*
X150845095Y-96783619D01*
X150845095Y-96832000D01*
X150857190Y-96856190D01*
X150881380Y-96880380D01*
X150929761Y-96892476D01*
X151014428Y-96892476D01*
X151062809Y-96880380D01*
X151087000Y-96856190D01*
X151099095Y-96832000D01*
X150845095Y-96614285D02*
X151014428Y-96614285D01*
X150966047Y-96614285D02*
X150990238Y-96602190D01*
X151002333Y-96590095D01*
X151014428Y-96565904D01*
X151014428Y-96541714D01*
X151087000Y-96130476D02*
X151099095Y-96154666D01*
X151099095Y-96190952D01*
X151087000Y-96227238D01*
X151062809Y-96251428D01*
X151038619Y-96263523D01*
X150990238Y-96275619D01*
X150953952Y-96275619D01*
X150905571Y-96263523D01*
X150881380Y-96251428D01*
X150857190Y-96227238D01*
X150845095Y-96190952D01*
X150845095Y-96166761D01*
X150857190Y-96130476D01*
X150869285Y-96118380D01*
X150953952Y-96118380D01*
X150953952Y-96166761D01*
X150845095Y-95900666D02*
X150978142Y-95900666D01*
X151002333Y-95912761D01*
X151014428Y-95936952D01*
X151014428Y-95985333D01*
X151002333Y-96009523D01*
X150857190Y-95900666D02*
X150845095Y-95924857D01*
X150845095Y-95985333D01*
X150857190Y-96009523D01*
X150881380Y-96021619D01*
X150905571Y-96021619D01*
X150929761Y-96009523D01*
X150941857Y-95985333D01*
X150941857Y-95924857D01*
X150953952Y-95900666D01*
X151014428Y-95816000D02*
X151014428Y-95719238D01*
X151099095Y-95779714D02*
X150881380Y-95779714D01*
X150857190Y-95767619D01*
X150845095Y-95743428D01*
X150845095Y-95719238D01*
X150857190Y-95537809D02*
X150845095Y-95562000D01*
X150845095Y-95610380D01*
X150857190Y-95634571D01*
X150881380Y-95646666D01*
X150978142Y-95646666D01*
X151002333Y-95634571D01*
X151014428Y-95610380D01*
X151014428Y-95562000D01*
X151002333Y-95537809D01*
X150978142Y-95525714D01*
X150953952Y-95525714D01*
X150929761Y-95646666D01*
X150978142Y-95138666D02*
X150966047Y-95102380D01*
X150953952Y-95090285D01*
X150929761Y-95078190D01*
X150893476Y-95078190D01*
X150869285Y-95090285D01*
X150857190Y-95102380D01*
X150845095Y-95126571D01*
X150845095Y-95223333D01*
X151099095Y-95223333D01*
X151099095Y-95138666D01*
X151087000Y-95114476D01*
X151074904Y-95102380D01*
X151050714Y-95090285D01*
X151026523Y-95090285D01*
X151002333Y-95102380D01*
X150990238Y-95114476D01*
X150978142Y-95138666D01*
X150978142Y-95223333D01*
X150845095Y-94969333D02*
X151014428Y-94969333D01*
X150966047Y-94969333D02*
X150990238Y-94957238D01*
X151002333Y-94945142D01*
X151014428Y-94920952D01*
X151014428Y-94896761D01*
X150857190Y-94715333D02*
X150845095Y-94739523D01*
X150845095Y-94787904D01*
X150857190Y-94812095D01*
X150881380Y-94824190D01*
X150978142Y-94824190D01*
X151002333Y-94812095D01*
X151014428Y-94787904D01*
X151014428Y-94739523D01*
X151002333Y-94715333D01*
X150978142Y-94703238D01*
X150953952Y-94703238D01*
X150929761Y-94824190D01*
X150845095Y-94485523D02*
X150978142Y-94485523D01*
X151002333Y-94497619D01*
X151014428Y-94521809D01*
X151014428Y-94570190D01*
X151002333Y-94594380D01*
X150857190Y-94485523D02*
X150845095Y-94509714D01*
X150845095Y-94570190D01*
X150857190Y-94594380D01*
X150881380Y-94606476D01*
X150905571Y-94606476D01*
X150929761Y-94594380D01*
X150941857Y-94570190D01*
X150941857Y-94509714D01*
X150953952Y-94485523D01*
X150845095Y-94364571D02*
X151099095Y-94364571D01*
X150941857Y-94340380D02*
X150845095Y-94267809D01*
X151014428Y-94267809D02*
X150917666Y-94364571D01*
X150845095Y-94122666D02*
X150857190Y-94146857D01*
X150869285Y-94158952D01*
X150893476Y-94171047D01*
X150966047Y-94171047D01*
X150990238Y-94158952D01*
X151002333Y-94146857D01*
X151014428Y-94122666D01*
X151014428Y-94086380D01*
X151002333Y-94062190D01*
X150990238Y-94050095D01*
X150966047Y-94038000D01*
X150893476Y-94038000D01*
X150869285Y-94050095D01*
X150857190Y-94062190D01*
X150845095Y-94086380D01*
X150845095Y-94122666D01*
X151014428Y-93820285D02*
X150845095Y-93820285D01*
X151014428Y-93929142D02*
X150881380Y-93929142D01*
X150857190Y-93917047D01*
X150845095Y-93892857D01*
X150845095Y-93856571D01*
X150857190Y-93832380D01*
X150869285Y-93820285D01*
X151014428Y-93735619D02*
X151014428Y-93638857D01*
X151099095Y-93699333D02*
X150881380Y-93699333D01*
X150857190Y-93687238D01*
X150845095Y-93663047D01*
X150845095Y-93638857D01*
X150185095Y-97420238D02*
X150439095Y-97420238D01*
X150257666Y-97335571D01*
X150439095Y-97250904D01*
X150185095Y-97250904D01*
X150185095Y-97129952D02*
X150439095Y-97129952D01*
X150318142Y-97129952D02*
X150318142Y-96984809D01*
X150185095Y-96984809D02*
X150439095Y-96984809D01*
X150185095Y-96827571D02*
X150197190Y-96851761D01*
X150209285Y-96863857D01*
X150233476Y-96875952D01*
X150306047Y-96875952D01*
X150330238Y-96863857D01*
X150342333Y-96851761D01*
X150354428Y-96827571D01*
X150354428Y-96791285D01*
X150342333Y-96767095D01*
X150330238Y-96755000D01*
X150306047Y-96742904D01*
X150233476Y-96742904D01*
X150209285Y-96755000D01*
X150197190Y-96767095D01*
X150185095Y-96791285D01*
X150185095Y-96827571D01*
X150354428Y-96525190D02*
X150185095Y-96525190D01*
X150354428Y-96634047D02*
X150221380Y-96634047D01*
X150197190Y-96621952D01*
X150185095Y-96597761D01*
X150185095Y-96561476D01*
X150197190Y-96537285D01*
X150209285Y-96525190D01*
X150185095Y-96404238D02*
X150354428Y-96404238D01*
X150306047Y-96404238D02*
X150330238Y-96392142D01*
X150342333Y-96380047D01*
X150354428Y-96355857D01*
X150354428Y-96331666D01*
X150185095Y-96138142D02*
X150318142Y-96138142D01*
X150342333Y-96150238D01*
X150354428Y-96174428D01*
X150354428Y-96222809D01*
X150342333Y-96247000D01*
X150197190Y-96138142D02*
X150185095Y-96162333D01*
X150185095Y-96222809D01*
X150197190Y-96247000D01*
X150221380Y-96259095D01*
X150245571Y-96259095D01*
X150269761Y-96247000D01*
X150281857Y-96222809D01*
X150281857Y-96162333D01*
X150293952Y-96138142D01*
X150354428Y-96017190D02*
X150185095Y-96017190D01*
X150330238Y-96017190D02*
X150342333Y-96005095D01*
X150354428Y-95980904D01*
X150354428Y-95944619D01*
X150342333Y-95920428D01*
X150318142Y-95908333D01*
X150185095Y-95908333D01*
X150185095Y-95787380D02*
X150354428Y-95787380D01*
X150439095Y-95787380D02*
X150427000Y-95799476D01*
X150414904Y-95787380D01*
X150427000Y-95775285D01*
X150439095Y-95787380D01*
X150414904Y-95787380D01*
X150185095Y-95533380D02*
X150185095Y-95678523D01*
X150185095Y-95605952D02*
X150439095Y-95605952D01*
X150402809Y-95630142D01*
X150378619Y-95654333D01*
X150366523Y-95678523D01*
X150185095Y-95291476D02*
X150185095Y-95436619D01*
X150185095Y-95364047D02*
X150439095Y-95364047D01*
X150402809Y-95388238D01*
X150378619Y-95412428D01*
X150366523Y-95436619D01*
X150414904Y-95194714D02*
X150427000Y-95182619D01*
X150439095Y-95158428D01*
X150439095Y-95097952D01*
X150427000Y-95073761D01*
X150414904Y-95061666D01*
X150390714Y-95049571D01*
X150366523Y-95049571D01*
X150330238Y-95061666D01*
X150185095Y-95206809D01*
X150185095Y-95049571D01*
X150439095Y-94819761D02*
X150439095Y-94940714D01*
X150318142Y-94952809D01*
X150330238Y-94940714D01*
X150342333Y-94916523D01*
X150342333Y-94856047D01*
X150330238Y-94831857D01*
X150318142Y-94819761D01*
X150293952Y-94807666D01*
X150233476Y-94807666D01*
X150209285Y-94819761D01*
X150197190Y-94831857D01*
X150185095Y-94856047D01*
X150185095Y-94916523D01*
X150197190Y-94940714D01*
X150209285Y-94952809D01*
M02*
