%TF.GenerationSoftware,KiCad,Pcbnew,(6.0.8)*%
%TF.CreationDate,2022-11-07T18:11:29-05:00*%
%TF.ProjectId,3-input-or-gate,332d696e-7075-4742-9d6f-722d67617465,rev?*%
%TF.SameCoordinates,Original*%
%TF.FileFunction,Legend,Top*%
%TF.FilePolarity,Positive*%
%FSLAX46Y46*%
G04 Gerber Fmt 4.6, Leading zero omitted, Abs format (unit mm)*
G04 Created by KiCad (PCBNEW (6.0.8)) date 2022-11-07 18:11:29*
%MOMM*%
%LPD*%
G01*
G04 APERTURE LIST*
%ADD10C,0.012700*%
%ADD11C,0.063500*%
%ADD12C,0.150000*%
%ADD13C,0.120000*%
G04 APERTURE END LIST*
D10*
X151366942Y-94766321D02*
X151366942Y-94773578D01*
X151374200Y-94751807D02*
X151374200Y-94773578D01*
X151381457Y-94737293D02*
X151381457Y-94773578D01*
X151388714Y-94722778D02*
X151388714Y-94773578D01*
X151395971Y-94715521D02*
X151395971Y-94773578D01*
X151403228Y-94701007D02*
X151403228Y-94773578D01*
X151410485Y-94686493D02*
X151410485Y-94773578D01*
X151417742Y-94671978D02*
X151417742Y-94773578D01*
X151425000Y-94657464D02*
X151425000Y-94773578D01*
X151432257Y-94671978D02*
X151432257Y-94773578D01*
X151439514Y-94686493D02*
X151439514Y-94773578D01*
X151446771Y-94701007D02*
X151446771Y-94773578D01*
X151454028Y-94715521D02*
X151454028Y-94773578D01*
X151461285Y-94722778D02*
X151461285Y-94773578D01*
X151468542Y-94737293D02*
X151468542Y-94773578D01*
X151475800Y-94751807D02*
X151475800Y-94773578D01*
X151483057Y-94773578D02*
X151425000Y-94664721D01*
X151366942Y-94773578D01*
X151483057Y-94766321D02*
X151483057Y-94773578D01*
X151425000Y-94657464D02*
X151490314Y-94773578D01*
X151359685Y-94773578D01*
X151425000Y-94657464D01*
X151366942Y-95011685D02*
X151366942Y-95018942D01*
X151374200Y-94997171D02*
X151374200Y-95018942D01*
X151381457Y-94982657D02*
X151381457Y-95018942D01*
X151388714Y-94968142D02*
X151388714Y-95018942D01*
X151395971Y-94960885D02*
X151395971Y-95018942D01*
X151403228Y-94946371D02*
X151403228Y-95018942D01*
X151410485Y-94931857D02*
X151410485Y-95018942D01*
X151417742Y-94917342D02*
X151417742Y-95018942D01*
X151425000Y-94902828D02*
X151425000Y-95018942D01*
X151432257Y-94917342D02*
X151432257Y-95018942D01*
X151439514Y-94931857D02*
X151439514Y-95018942D01*
X151446771Y-94946371D02*
X151446771Y-95018942D01*
X151454028Y-94960885D02*
X151454028Y-95018942D01*
X151461285Y-94968142D02*
X151461285Y-95018942D01*
X151468542Y-94982657D02*
X151468542Y-95018942D01*
X151475800Y-94997171D02*
X151475800Y-95018942D01*
X151483057Y-95018942D02*
X151425000Y-94910085D01*
X151366942Y-95018942D01*
X151483057Y-95011685D02*
X151483057Y-95018942D01*
X151425000Y-94902828D02*
X151490314Y-95018942D01*
X151359685Y-95018942D01*
X151425000Y-94902828D01*
X151366942Y-95257049D02*
X151366942Y-95264306D01*
X151374200Y-95242535D02*
X151374200Y-95264306D01*
X151381457Y-95228021D02*
X151381457Y-95264306D01*
X151388714Y-95213506D02*
X151388714Y-95264306D01*
X151395971Y-95206249D02*
X151395971Y-95264306D01*
X151403228Y-95191735D02*
X151403228Y-95264306D01*
X151410485Y-95177221D02*
X151410485Y-95264306D01*
X151417742Y-95162706D02*
X151417742Y-95264306D01*
X151425000Y-95148192D02*
X151425000Y-95264306D01*
X151432257Y-95162706D02*
X151432257Y-95264306D01*
X151439514Y-95177221D02*
X151439514Y-95264306D01*
X151446771Y-95191735D02*
X151446771Y-95264306D01*
X151454028Y-95206249D02*
X151454028Y-95264306D01*
X151461285Y-95213506D02*
X151461285Y-95264306D01*
X151468542Y-95228021D02*
X151468542Y-95264306D01*
X151475800Y-95242535D02*
X151475800Y-95264306D01*
X151483057Y-95264306D02*
X151425000Y-95155449D01*
X151366942Y-95264306D01*
X151483057Y-95257049D02*
X151483057Y-95264306D01*
X151425000Y-95148192D02*
X151490314Y-95264306D01*
X151359685Y-95264306D01*
X151425000Y-95148192D01*
D11*
X149339523Y-94242333D02*
X149460476Y-94242333D01*
X149315333Y-94314904D02*
X149400000Y-94060904D01*
X149484666Y-94314904D01*
X144485095Y-92619428D02*
X144739095Y-92619428D01*
X144739095Y-92716190D01*
X144727000Y-92740380D01*
X144714904Y-92752476D01*
X144690714Y-92764571D01*
X144654428Y-92764571D01*
X144630238Y-92752476D01*
X144618142Y-92740380D01*
X144606047Y-92716190D01*
X144606047Y-92619428D01*
X144485095Y-92873428D02*
X144654428Y-92873428D01*
X144739095Y-92873428D02*
X144727000Y-92861333D01*
X144714904Y-92873428D01*
X144727000Y-92885523D01*
X144739095Y-92873428D01*
X144714904Y-92873428D01*
X144654428Y-92994380D02*
X144485095Y-92994380D01*
X144630238Y-92994380D02*
X144642333Y-93006476D01*
X144654428Y-93030666D01*
X144654428Y-93066952D01*
X144642333Y-93091142D01*
X144618142Y-93103238D01*
X144485095Y-93103238D01*
X144714904Y-93405619D02*
X144727000Y-93417714D01*
X144739095Y-93441904D01*
X144739095Y-93502380D01*
X144727000Y-93526571D01*
X144714904Y-93538666D01*
X144690714Y-93550761D01*
X144666523Y-93550761D01*
X144630238Y-93538666D01*
X144485095Y-93393523D01*
X144485095Y-93550761D01*
X144739095Y-93708000D02*
X144739095Y-93732190D01*
X144727000Y-93756380D01*
X144714904Y-93768476D01*
X144690714Y-93780571D01*
X144642333Y-93792666D01*
X144581857Y-93792666D01*
X144533476Y-93780571D01*
X144509285Y-93768476D01*
X144497190Y-93756380D01*
X144485095Y-93732190D01*
X144485095Y-93708000D01*
X144497190Y-93683809D01*
X144509285Y-93671714D01*
X144533476Y-93659619D01*
X144581857Y-93647523D01*
X144642333Y-93647523D01*
X144690714Y-93659619D01*
X144714904Y-93671714D01*
X144727000Y-93683809D01*
X144739095Y-93708000D01*
X144485095Y-100019428D02*
X144739095Y-100019428D01*
X144739095Y-100116190D01*
X144727000Y-100140380D01*
X144714904Y-100152476D01*
X144690714Y-100164571D01*
X144654428Y-100164571D01*
X144630238Y-100152476D01*
X144618142Y-100140380D01*
X144606047Y-100116190D01*
X144606047Y-100019428D01*
X144485095Y-100273428D02*
X144654428Y-100273428D01*
X144739095Y-100273428D02*
X144727000Y-100261333D01*
X144714904Y-100273428D01*
X144727000Y-100285523D01*
X144739095Y-100273428D01*
X144714904Y-100273428D01*
X144654428Y-100394380D02*
X144485095Y-100394380D01*
X144630238Y-100394380D02*
X144642333Y-100406476D01*
X144654428Y-100430666D01*
X144654428Y-100466952D01*
X144642333Y-100491142D01*
X144618142Y-100503238D01*
X144485095Y-100503238D01*
X144714904Y-100805619D02*
X144727000Y-100817714D01*
X144739095Y-100841904D01*
X144739095Y-100902380D01*
X144727000Y-100926571D01*
X144714904Y-100938666D01*
X144690714Y-100950761D01*
X144666523Y-100950761D01*
X144630238Y-100938666D01*
X144485095Y-100793523D01*
X144485095Y-100950761D01*
X144630238Y-101095904D02*
X144642333Y-101071714D01*
X144654428Y-101059619D01*
X144678619Y-101047523D01*
X144690714Y-101047523D01*
X144714904Y-101059619D01*
X144727000Y-101071714D01*
X144739095Y-101095904D01*
X144739095Y-101144285D01*
X144727000Y-101168476D01*
X144714904Y-101180571D01*
X144690714Y-101192666D01*
X144678619Y-101192666D01*
X144654428Y-101180571D01*
X144642333Y-101168476D01*
X144630238Y-101144285D01*
X144630238Y-101095904D01*
X144618142Y-101071714D01*
X144606047Y-101059619D01*
X144581857Y-101047523D01*
X144533476Y-101047523D01*
X144509285Y-101059619D01*
X144497190Y-101071714D01*
X144485095Y-101095904D01*
X144485095Y-101144285D01*
X144497190Y-101168476D01*
X144509285Y-101180571D01*
X144533476Y-101192666D01*
X144581857Y-101192666D01*
X144606047Y-101180571D01*
X144618142Y-101168476D01*
X144630238Y-101144285D01*
X150418142Y-94181857D02*
X150454428Y-94193952D01*
X150466523Y-94206047D01*
X150478619Y-94230238D01*
X150478619Y-94266523D01*
X150466523Y-94290714D01*
X150454428Y-94302809D01*
X150430238Y-94314904D01*
X150333476Y-94314904D01*
X150333476Y-94060904D01*
X150418142Y-94060904D01*
X150442333Y-94073000D01*
X150454428Y-94085095D01*
X150466523Y-94109285D01*
X150466523Y-94133476D01*
X150454428Y-94157666D01*
X150442333Y-94169761D01*
X150418142Y-94181857D01*
X150333476Y-94181857D01*
X145808619Y-99940714D02*
X145796523Y-99952809D01*
X145760238Y-99964904D01*
X145736047Y-99964904D01*
X145699761Y-99952809D01*
X145675571Y-99928619D01*
X145663476Y-99904428D01*
X145651380Y-99856047D01*
X145651380Y-99819761D01*
X145663476Y-99771380D01*
X145675571Y-99747190D01*
X145699761Y-99723000D01*
X145736047Y-99710904D01*
X145760238Y-99710904D01*
X145796523Y-99723000D01*
X145808619Y-99735095D01*
X146534761Y-98510904D02*
X146619428Y-98764904D01*
X146704095Y-98510904D01*
X146933904Y-98740714D02*
X146921809Y-98752809D01*
X146885523Y-98764904D01*
X146861333Y-98764904D01*
X146825047Y-98752809D01*
X146800857Y-98728619D01*
X146788761Y-98704428D01*
X146776666Y-98656047D01*
X146776666Y-98619761D01*
X146788761Y-98571380D01*
X146800857Y-98547190D01*
X146825047Y-98523000D01*
X146861333Y-98510904D01*
X146885523Y-98510904D01*
X146921809Y-98523000D01*
X146933904Y-98535095D01*
X147187904Y-98740714D02*
X147175809Y-98752809D01*
X147139523Y-98764904D01*
X147115333Y-98764904D01*
X147079047Y-98752809D01*
X147054857Y-98728619D01*
X147042761Y-98704428D01*
X147030666Y-98656047D01*
X147030666Y-98619761D01*
X147042761Y-98571380D01*
X147054857Y-98547190D01*
X147079047Y-98523000D01*
X147115333Y-98510904D01*
X147139523Y-98510904D01*
X147175809Y-98523000D01*
X147187904Y-98535095D01*
X147611238Y-98510904D02*
X147490285Y-98510904D01*
X147478190Y-98631857D01*
X147490285Y-98619761D01*
X147514476Y-98607666D01*
X147574952Y-98607666D01*
X147599142Y-98619761D01*
X147611238Y-98631857D01*
X147623333Y-98656047D01*
X147623333Y-98716523D01*
X147611238Y-98740714D01*
X147599142Y-98752809D01*
X147574952Y-98764904D01*
X147514476Y-98764904D01*
X147490285Y-98752809D01*
X147478190Y-98740714D01*
X147695904Y-98510904D02*
X147780571Y-98764904D01*
X147865238Y-98510904D01*
X151248000Y-95968523D02*
X151235904Y-95992714D01*
X151235904Y-96029000D01*
X151248000Y-96065285D01*
X151272190Y-96089476D01*
X151296380Y-96101571D01*
X151344761Y-96113666D01*
X151381047Y-96113666D01*
X151429428Y-96101571D01*
X151453619Y-96089476D01*
X151477809Y-96065285D01*
X151489904Y-96029000D01*
X151489904Y-96004809D01*
X151477809Y-95968523D01*
X151465714Y-95956428D01*
X151381047Y-95956428D01*
X151381047Y-96004809D01*
X151489904Y-95847571D02*
X151235904Y-95847571D01*
X151489904Y-95702428D01*
X151235904Y-95702428D01*
X151489904Y-95581476D02*
X151235904Y-95581476D01*
X151235904Y-95521000D01*
X151248000Y-95484714D01*
X151272190Y-95460523D01*
X151296380Y-95448428D01*
X151344761Y-95436333D01*
X151381047Y-95436333D01*
X151429428Y-95448428D01*
X151453619Y-95460523D01*
X151477809Y-95484714D01*
X151489904Y-95521000D01*
X151489904Y-95581476D01*
D12*
%TO.C,*%
D11*
%TO.C,R2*%
X146894904Y-96992333D02*
X146773952Y-97077000D01*
X146894904Y-97137476D02*
X146640904Y-97137476D01*
X146640904Y-97040714D01*
X146653000Y-97016523D01*
X146665095Y-97004428D01*
X146689285Y-96992333D01*
X146725571Y-96992333D01*
X146749761Y-97004428D01*
X146761857Y-97016523D01*
X146773952Y-97040714D01*
X146773952Y-97137476D01*
X146665095Y-96895571D02*
X146653000Y-96883476D01*
X146640904Y-96859285D01*
X146640904Y-96798809D01*
X146653000Y-96774619D01*
X146665095Y-96762523D01*
X146689285Y-96750428D01*
X146713476Y-96750428D01*
X146749761Y-96762523D01*
X146894904Y-96907666D01*
X146894904Y-96750428D01*
%TO.C,C2*%
X149932666Y-99390714D02*
X149920571Y-99402809D01*
X149884285Y-99414904D01*
X149860095Y-99414904D01*
X149823809Y-99402809D01*
X149799619Y-99378619D01*
X149787523Y-99354428D01*
X149775428Y-99306047D01*
X149775428Y-99269761D01*
X149787523Y-99221380D01*
X149799619Y-99197190D01*
X149823809Y-99173000D01*
X149860095Y-99160904D01*
X149884285Y-99160904D01*
X149920571Y-99173000D01*
X149932666Y-99185095D01*
X150029428Y-99185095D02*
X150041523Y-99173000D01*
X150065714Y-99160904D01*
X150126190Y-99160904D01*
X150150380Y-99173000D01*
X150162476Y-99185095D01*
X150174571Y-99209285D01*
X150174571Y-99233476D01*
X150162476Y-99269761D01*
X150017333Y-99414904D01*
X150174571Y-99414904D01*
D12*
%TO.C,*%
D11*
%TO.C,R1*%
X145114904Y-96542333D02*
X144993952Y-96627000D01*
X145114904Y-96687476D02*
X144860904Y-96687476D01*
X144860904Y-96590714D01*
X144873000Y-96566523D01*
X144885095Y-96554428D01*
X144909285Y-96542333D01*
X144945571Y-96542333D01*
X144969761Y-96554428D01*
X144981857Y-96566523D01*
X144993952Y-96590714D01*
X144993952Y-96687476D01*
X145114904Y-96300428D02*
X145114904Y-96445571D01*
X145114904Y-96373000D02*
X144860904Y-96373000D01*
X144897190Y-96397190D01*
X144921380Y-96421380D01*
X144933476Y-96445571D01*
%TO.C,C1*%
X147282666Y-93900714D02*
X147270571Y-93912809D01*
X147234285Y-93924904D01*
X147210095Y-93924904D01*
X147173809Y-93912809D01*
X147149619Y-93888619D01*
X147137523Y-93864428D01*
X147125428Y-93816047D01*
X147125428Y-93779761D01*
X147137523Y-93731380D01*
X147149619Y-93707190D01*
X147173809Y-93683000D01*
X147210095Y-93670904D01*
X147234285Y-93670904D01*
X147270571Y-93683000D01*
X147282666Y-93695095D01*
X147524571Y-93924904D02*
X147379428Y-93924904D01*
X147452000Y-93924904D02*
X147452000Y-93670904D01*
X147427809Y-93707190D01*
X147403619Y-93731380D01*
X147379428Y-93743476D01*
D13*
%TO.C,U5*%
X150553489Y-96091512D02*
G75*
G03*
X150553489Y-96091512I-98489J0D01*
G01*
X151125000Y-97250000D02*
X151125000Y-94950000D01*
X147925000Y-95800000D02*
X147925000Y-97400000D01*
%TO.C,R2*%
X147290000Y-96809420D02*
X147290000Y-97090580D01*
X146270000Y-96809420D02*
X146270000Y-97090580D01*
%TO.C,C2*%
X149834420Y-98790000D02*
X150115580Y-98790000D01*
X149834420Y-99810000D02*
X150115580Y-99810000D01*
%TO.C,R1*%
X145510000Y-96665580D02*
X145510000Y-96384420D01*
X144490000Y-96665580D02*
X144490000Y-96384420D01*
%TO.C,C1*%
X147184420Y-93350000D02*
X147465580Y-93350000D01*
X147184420Y-94370000D02*
X147465580Y-94370000D01*
%TD*%
M02*
