%TF.GenerationSoftware,KiCad,Pcbnew,(6.0.8)*%
%TF.CreationDate,2022-11-07T14:22:25-05:00*%
%TF.ProjectId,3-input-or-gate,332d696e-7075-4742-9d6f-722d67617465,rev?*%
%TF.SameCoordinates,Original*%
%TF.FileFunction,Copper,L1,Top*%
%TF.FilePolarity,Positive*%
%FSLAX46Y46*%
G04 Gerber Fmt 4.6, Leading zero omitted, Abs format (unit mm)*
G04 Created by KiCad (PCBNEW (6.0.8)) date 2022-11-07 14:22:25*
%MOMM*%
%LPD*%
G01*
G04 APERTURE LIST*
G04 Aperture macros list*
%AMRoundRect*
0 Rectangle with rounded corners*
0 $1 Rounding radius*
0 $2 $3 $4 $5 $6 $7 $8 $9 X,Y pos of 4 corners*
0 Add a 4 corners polygon primitive as box body*
4,1,4,$2,$3,$4,$5,$6,$7,$8,$9,$2,$3,0*
0 Add four circle primitives for the rounded corners*
1,1,$1+$1,$2,$3*
1,1,$1+$1,$4,$5*
1,1,$1+$1,$6,$7*
1,1,$1+$1,$8,$9*
0 Add four rect primitives between the rounded corners*
20,1,$1+$1,$2,$3,$4,$5,0*
20,1,$1+$1,$4,$5,$6,$7,0*
20,1,$1+$1,$6,$7,$8,$9,0*
20,1,$1+$1,$8,$9,$2,$3,0*%
G04 Aperture macros list end*
%TA.AperFunction,SMDPad,CuDef*%
%ADD10RoundRect,0.127000X-0.127000X0.762000X-0.127000X-0.762000X0.127000X-0.762000X0.127000X0.762000X0*%
%TD*%
%TA.AperFunction,SMDPad,CuDef*%
%ADD11RoundRect,0.127000X0.762000X0.127000X-0.762000X0.127000X-0.762000X-0.127000X0.762000X-0.127000X0*%
%TD*%
%TA.AperFunction,SMDPad,CuDef*%
%ADD12RoundRect,0.127000X0.127000X-0.762000X0.127000X0.762000X-0.127000X0.762000X-0.127000X-0.762000X0*%
%TD*%
%TA.AperFunction,SMDPad,CuDef*%
%ADD13RoundRect,0.127000X-1.016000X-0.127000X1.016000X-0.127000X1.016000X0.127000X-1.016000X0.127000X0*%
%TD*%
%TA.AperFunction,SMDPad,CuDef*%
%ADD14RoundRect,0.127000X1.016000X0.127000X-1.016000X0.127000X-1.016000X-0.127000X1.016000X-0.127000X0*%
%TD*%
%TA.AperFunction,SMDPad,CuDef*%
%ADD15RoundRect,0.225000X-0.250000X0.225000X-0.250000X-0.225000X0.250000X-0.225000X0.250000X0.225000X0*%
%TD*%
%TA.AperFunction,SMDPad,CuDef*%
%ADD16RoundRect,0.225000X-0.225000X-0.250000X0.225000X-0.250000X0.225000X0.250000X-0.225000X0.250000X0*%
%TD*%
%TA.AperFunction,SMDPad,CuDef*%
%ADD17R,0.510000X0.700000*%
%TD*%
%TA.AperFunction,SMDPad,CuDef*%
%ADD18RoundRect,0.225000X0.250000X-0.225000X0.250000X0.225000X-0.250000X0.225000X-0.250000X-0.225000X0*%
%TD*%
%TA.AperFunction,ViaPad*%
%ADD19C,0.800000*%
%TD*%
%TA.AperFunction,Conductor*%
%ADD20C,0.250000*%
%TD*%
G04 APERTURE END LIST*
D10*
%TO.P,,10*%
%TO.N,B*%
X150100000Y-93000000D03*
%TD*%
D11*
%TO.P,,B*%
%TO.N,VCC5V*%
X146225000Y-98750000D03*
%TD*%
D10*
%TO.P,,9*%
%TO.N,GND*%
X151100000Y-93000000D03*
%TD*%
D12*
%TO.P,,11*%
%TO.N,A*%
X149100000Y-93000000D03*
%TD*%
D13*
%TO.P,,4*%
%TO.N,CE*%
X143500000Y-102000000D03*
%TD*%
D14*
%TO.P,,1*%
%TO.N,VCC-PAD*%
X143500000Y-91850000D03*
%TD*%
D15*
%TO.P,R2,5*%
%TO.N,GND*%
X146600000Y-96200000D03*
%TO.P,R2,6*%
%TO.N,CE*%
X146600000Y-97750000D03*
%TD*%
D16*
%TO.P,C2,7*%
%TO.N,GND*%
X150750000Y-99300000D03*
%TO.P,C2,8*%
%TO.N,VCC5V*%
X149200000Y-99300000D03*
%TD*%
D11*
%TO.P,,B*%
%TO.N,C*%
X146225000Y-99575000D03*
%TD*%
D17*
%TO.P,U5,1*%
%TO.N,B*%
X150050000Y-95640000D03*
%TO.P,U5,2*%
%TO.N,GND*%
X149100000Y-95640000D03*
%TO.P,U5,3*%
%TO.N,A*%
X148150000Y-95640000D03*
%TO.P,U5,4*%
%TO.N,CE*%
X148150000Y-97960000D03*
%TO.P,U5,5*%
%TO.N,VCC5V*%
X149100000Y-97975000D03*
%TO.P,U5,6*%
%TO.N,C*%
X150050000Y-97960000D03*
%TD*%
D18*
%TO.P,R1,2*%
%TO.N,VCC-PAD*%
X145000000Y-95750000D03*
%TO.P,R1,3*%
%TO.N,CE*%
X145000000Y-97300000D03*
%TD*%
D16*
%TO.P,C1,5*%
%TO.N,VCC-PAD*%
X146225000Y-94250000D03*
%TO.P,C1,6*%
%TO.N,GND*%
X147775000Y-94250000D03*
%TD*%
D19*
%TO.N,GND*%
X148000000Y-96925000D03*
%TO.N,C*%
X147825000Y-99525000D03*
X150502597Y-97039500D03*
%TD*%
D20*
%TO.N,VCC-PAD*%
X143550000Y-91850000D02*
X145600000Y-91850000D01*
X145600000Y-91850000D02*
X146000000Y-92250000D01*
X144600000Y-91850000D02*
X145000000Y-92250000D01*
X143550000Y-91850000D02*
X144600000Y-91850000D01*
X146000000Y-92250000D02*
X146000000Y-94025000D01*
X145000000Y-92250000D02*
X145000000Y-95750000D01*
X146000000Y-94025000D02*
X146225000Y-94250000D01*
%TO.N,GND*%
X148469502Y-96475000D02*
X150041792Y-96475000D01*
X148000000Y-96925000D02*
X148000000Y-96745000D01*
X150630500Y-96314500D02*
X151100000Y-95845000D01*
X151075000Y-96586598D02*
X151075000Y-95850000D01*
X151227597Y-98797403D02*
X151227597Y-96739195D01*
X147560000Y-96305000D02*
X147560000Y-95560000D01*
X147500000Y-95500000D02*
X147560000Y-95560000D01*
X151227597Y-96739195D02*
X151075000Y-96586598D01*
X150725000Y-99300000D02*
X151227597Y-98797403D01*
X147560000Y-95560000D02*
X147560000Y-94465000D01*
X148000000Y-96925000D02*
X149100000Y-95825000D01*
X151100000Y-95845000D02*
X151100000Y-93000000D01*
X150041792Y-96475000D02*
X150202292Y-96314500D01*
X148000000Y-96745000D02*
X147560000Y-96305000D01*
X146600000Y-96200000D02*
X146600000Y-95500000D01*
X150202292Y-96314500D02*
X150630500Y-96314500D01*
X148000000Y-96925000D02*
X148019502Y-96925000D01*
X148019502Y-96925000D02*
X148469502Y-96475000D01*
X147560000Y-94465000D02*
X147775000Y-94250000D01*
X149100000Y-95825000D02*
X149100000Y-95640000D01*
X146600000Y-95500000D02*
X147500000Y-95500000D01*
%TO.N,CE*%
X144500000Y-102000000D02*
X145000000Y-101500000D01*
X145000000Y-97975000D02*
X145000000Y-97300000D01*
X148150000Y-97960000D02*
X146810000Y-97960000D01*
X145000000Y-97975000D02*
X146375000Y-97975000D01*
X146375000Y-97975000D02*
X146600000Y-97750000D01*
X145000000Y-99300000D02*
X145000000Y-97975000D01*
X145000000Y-101500000D02*
X145000000Y-99300000D01*
X146810000Y-97960000D02*
X146600000Y-97750000D01*
X143500000Y-102000000D02*
X144500000Y-102000000D01*
%TO.N,A*%
X148150000Y-95400000D02*
X149100000Y-94450000D01*
X149100000Y-94450000D02*
X149100000Y-93000000D01*
X148150000Y-95640000D02*
X148150000Y-95400000D01*
%TO.N,B*%
X150050000Y-93050000D02*
X150050000Y-95640000D01*
X150100000Y-93000000D02*
X150050000Y-93050000D01*
%TO.N,VCC5V*%
X149200000Y-99300000D02*
X149100000Y-99200000D01*
X149100000Y-99200000D02*
X149100000Y-97975000D01*
X146225000Y-98750000D02*
X148650000Y-98750000D01*
X148650000Y-98750000D02*
X149200000Y-99300000D01*
%TO.N,C*%
X146225000Y-99575000D02*
X147775000Y-99575000D01*
X150502597Y-97039500D02*
X150502597Y-97507403D01*
X147775000Y-99575000D02*
X147825000Y-99525000D01*
X150502597Y-97507403D02*
X150050000Y-97960000D01*
%TD*%
M02*
