%TF.GenerationSoftware,KiCad,Pcbnew,(6.0.8)*%
%TF.CreationDate,2022-11-07T14:22:25-05:00*%
%TF.ProjectId,3-input-or-gate,332d696e-7075-4742-9d6f-722d67617465,rev?*%
%TF.SameCoordinates,Original*%
%TF.FileFunction,Legend,Bot*%
%TF.FilePolarity,Positive*%
%FSLAX46Y46*%
G04 Gerber Fmt 4.6, Leading zero omitted, Abs format (unit mm)*
G04 Created by KiCad (PCBNEW (6.0.8)) date 2022-11-07 14:22:25*
%MOMM*%
%LPD*%
G01*
G04 APERTURE LIST*
%ADD10C,0.063500*%
G04 APERTURE END LIST*
D10*
X151099095Y-98449047D02*
X151099095Y-98291809D01*
X151002333Y-98376476D01*
X151002333Y-98340190D01*
X150990238Y-98316000D01*
X150978142Y-98303904D01*
X150953952Y-98291809D01*
X150893476Y-98291809D01*
X150869285Y-98303904D01*
X150857190Y-98316000D01*
X150845095Y-98340190D01*
X150845095Y-98412761D01*
X150857190Y-98436952D01*
X150869285Y-98449047D01*
X150845095Y-97989428D02*
X151099095Y-97989428D01*
X151014428Y-97868476D02*
X150845095Y-97868476D01*
X150990238Y-97868476D02*
X151002333Y-97856380D01*
X151014428Y-97832190D01*
X151014428Y-97795904D01*
X151002333Y-97771714D01*
X150978142Y-97759619D01*
X150845095Y-97759619D01*
X151014428Y-97638666D02*
X150760428Y-97638666D01*
X151002333Y-97638666D02*
X151014428Y-97614476D01*
X151014428Y-97566095D01*
X151002333Y-97541904D01*
X150990238Y-97529809D01*
X150966047Y-97517714D01*
X150893476Y-97517714D01*
X150869285Y-97529809D01*
X150857190Y-97541904D01*
X150845095Y-97566095D01*
X150845095Y-97614476D01*
X150857190Y-97638666D01*
X151014428Y-97300000D02*
X150845095Y-97300000D01*
X151014428Y-97408857D02*
X150881380Y-97408857D01*
X150857190Y-97396761D01*
X150845095Y-97372571D01*
X150845095Y-97336285D01*
X150857190Y-97312095D01*
X150869285Y-97300000D01*
X151014428Y-97215333D02*
X151014428Y-97118571D01*
X151099095Y-97179047D02*
X150881380Y-97179047D01*
X150857190Y-97166952D01*
X150845095Y-97142761D01*
X150845095Y-97118571D01*
X151099095Y-96792000D02*
X151099095Y-96743619D01*
X151087000Y-96719428D01*
X151062809Y-96695238D01*
X151014428Y-96683142D01*
X150929761Y-96683142D01*
X150881380Y-96695238D01*
X150857190Y-96719428D01*
X150845095Y-96743619D01*
X150845095Y-96792000D01*
X150857190Y-96816190D01*
X150881380Y-96840380D01*
X150929761Y-96852476D01*
X151014428Y-96852476D01*
X151062809Y-96840380D01*
X151087000Y-96816190D01*
X151099095Y-96792000D01*
X150845095Y-96574285D02*
X151014428Y-96574285D01*
X150966047Y-96574285D02*
X150990238Y-96562190D01*
X151002333Y-96550095D01*
X151014428Y-96525904D01*
X151014428Y-96501714D01*
X151087000Y-96090476D02*
X151099095Y-96114666D01*
X151099095Y-96150952D01*
X151087000Y-96187238D01*
X151062809Y-96211428D01*
X151038619Y-96223523D01*
X150990238Y-96235619D01*
X150953952Y-96235619D01*
X150905571Y-96223523D01*
X150881380Y-96211428D01*
X150857190Y-96187238D01*
X150845095Y-96150952D01*
X150845095Y-96126761D01*
X150857190Y-96090476D01*
X150869285Y-96078380D01*
X150953952Y-96078380D01*
X150953952Y-96126761D01*
X150845095Y-95860666D02*
X150978142Y-95860666D01*
X151002333Y-95872761D01*
X151014428Y-95896952D01*
X151014428Y-95945333D01*
X151002333Y-95969523D01*
X150857190Y-95860666D02*
X150845095Y-95884857D01*
X150845095Y-95945333D01*
X150857190Y-95969523D01*
X150881380Y-95981619D01*
X150905571Y-95981619D01*
X150929761Y-95969523D01*
X150941857Y-95945333D01*
X150941857Y-95884857D01*
X150953952Y-95860666D01*
X151014428Y-95776000D02*
X151014428Y-95679238D01*
X151099095Y-95739714D02*
X150881380Y-95739714D01*
X150857190Y-95727619D01*
X150845095Y-95703428D01*
X150845095Y-95679238D01*
X150857190Y-95497809D02*
X150845095Y-95522000D01*
X150845095Y-95570380D01*
X150857190Y-95594571D01*
X150881380Y-95606666D01*
X150978142Y-95606666D01*
X151002333Y-95594571D01*
X151014428Y-95570380D01*
X151014428Y-95522000D01*
X151002333Y-95497809D01*
X150978142Y-95485714D01*
X150953952Y-95485714D01*
X150929761Y-95606666D01*
X150978142Y-95098666D02*
X150966047Y-95062380D01*
X150953952Y-95050285D01*
X150929761Y-95038190D01*
X150893476Y-95038190D01*
X150869285Y-95050285D01*
X150857190Y-95062380D01*
X150845095Y-95086571D01*
X150845095Y-95183333D01*
X151099095Y-95183333D01*
X151099095Y-95098666D01*
X151087000Y-95074476D01*
X151074904Y-95062380D01*
X151050714Y-95050285D01*
X151026523Y-95050285D01*
X151002333Y-95062380D01*
X150990238Y-95074476D01*
X150978142Y-95098666D01*
X150978142Y-95183333D01*
X150845095Y-94929333D02*
X151014428Y-94929333D01*
X150966047Y-94929333D02*
X150990238Y-94917238D01*
X151002333Y-94905142D01*
X151014428Y-94880952D01*
X151014428Y-94856761D01*
X150857190Y-94675333D02*
X150845095Y-94699523D01*
X150845095Y-94747904D01*
X150857190Y-94772095D01*
X150881380Y-94784190D01*
X150978142Y-94784190D01*
X151002333Y-94772095D01*
X151014428Y-94747904D01*
X151014428Y-94699523D01*
X151002333Y-94675333D01*
X150978142Y-94663238D01*
X150953952Y-94663238D01*
X150929761Y-94784190D01*
X150845095Y-94445523D02*
X150978142Y-94445523D01*
X151002333Y-94457619D01*
X151014428Y-94481809D01*
X151014428Y-94530190D01*
X151002333Y-94554380D01*
X150857190Y-94445523D02*
X150845095Y-94469714D01*
X150845095Y-94530190D01*
X150857190Y-94554380D01*
X150881380Y-94566476D01*
X150905571Y-94566476D01*
X150929761Y-94554380D01*
X150941857Y-94530190D01*
X150941857Y-94469714D01*
X150953952Y-94445523D01*
X150845095Y-94324571D02*
X151099095Y-94324571D01*
X150941857Y-94300380D02*
X150845095Y-94227809D01*
X151014428Y-94227809D02*
X150917666Y-94324571D01*
X150845095Y-94082666D02*
X150857190Y-94106857D01*
X150869285Y-94118952D01*
X150893476Y-94131047D01*
X150966047Y-94131047D01*
X150990238Y-94118952D01*
X151002333Y-94106857D01*
X151014428Y-94082666D01*
X151014428Y-94046380D01*
X151002333Y-94022190D01*
X150990238Y-94010095D01*
X150966047Y-93998000D01*
X150893476Y-93998000D01*
X150869285Y-94010095D01*
X150857190Y-94022190D01*
X150845095Y-94046380D01*
X150845095Y-94082666D01*
X151014428Y-93780285D02*
X150845095Y-93780285D01*
X151014428Y-93889142D02*
X150881380Y-93889142D01*
X150857190Y-93877047D01*
X150845095Y-93852857D01*
X150845095Y-93816571D01*
X150857190Y-93792380D01*
X150869285Y-93780285D01*
X151014428Y-93695619D02*
X151014428Y-93598857D01*
X151099095Y-93659333D02*
X150881380Y-93659333D01*
X150857190Y-93647238D01*
X150845095Y-93623047D01*
X150845095Y-93598857D01*
X150185095Y-97420238D02*
X150439095Y-97420238D01*
X150257666Y-97335571D01*
X150439095Y-97250904D01*
X150185095Y-97250904D01*
X150185095Y-97129952D02*
X150439095Y-97129952D01*
X150318142Y-97129952D02*
X150318142Y-96984809D01*
X150185095Y-96984809D02*
X150439095Y-96984809D01*
X150185095Y-96827571D02*
X150197190Y-96851761D01*
X150209285Y-96863857D01*
X150233476Y-96875952D01*
X150306047Y-96875952D01*
X150330238Y-96863857D01*
X150342333Y-96851761D01*
X150354428Y-96827571D01*
X150354428Y-96791285D01*
X150342333Y-96767095D01*
X150330238Y-96755000D01*
X150306047Y-96742904D01*
X150233476Y-96742904D01*
X150209285Y-96755000D01*
X150197190Y-96767095D01*
X150185095Y-96791285D01*
X150185095Y-96827571D01*
X150354428Y-96525190D02*
X150185095Y-96525190D01*
X150354428Y-96634047D02*
X150221380Y-96634047D01*
X150197190Y-96621952D01*
X150185095Y-96597761D01*
X150185095Y-96561476D01*
X150197190Y-96537285D01*
X150209285Y-96525190D01*
X150185095Y-96404238D02*
X150354428Y-96404238D01*
X150306047Y-96404238D02*
X150330238Y-96392142D01*
X150342333Y-96380047D01*
X150354428Y-96355857D01*
X150354428Y-96331666D01*
X150185095Y-96138142D02*
X150318142Y-96138142D01*
X150342333Y-96150238D01*
X150354428Y-96174428D01*
X150354428Y-96222809D01*
X150342333Y-96247000D01*
X150197190Y-96138142D02*
X150185095Y-96162333D01*
X150185095Y-96222809D01*
X150197190Y-96247000D01*
X150221380Y-96259095D01*
X150245571Y-96259095D01*
X150269761Y-96247000D01*
X150281857Y-96222809D01*
X150281857Y-96162333D01*
X150293952Y-96138142D01*
X150354428Y-96017190D02*
X150185095Y-96017190D01*
X150330238Y-96017190D02*
X150342333Y-96005095D01*
X150354428Y-95980904D01*
X150354428Y-95944619D01*
X150342333Y-95920428D01*
X150318142Y-95908333D01*
X150185095Y-95908333D01*
X150185095Y-95787380D02*
X150354428Y-95787380D01*
X150439095Y-95787380D02*
X150427000Y-95799476D01*
X150414904Y-95787380D01*
X150427000Y-95775285D01*
X150439095Y-95787380D01*
X150414904Y-95787380D01*
X150185095Y-95533380D02*
X150185095Y-95678523D01*
X150185095Y-95605952D02*
X150439095Y-95605952D01*
X150402809Y-95630142D01*
X150378619Y-95654333D01*
X150366523Y-95678523D01*
X150185095Y-95291476D02*
X150185095Y-95436619D01*
X150185095Y-95364047D02*
X150439095Y-95364047D01*
X150402809Y-95388238D01*
X150378619Y-95412428D01*
X150366523Y-95436619D01*
X150414904Y-95194714D02*
X150427000Y-95182619D01*
X150439095Y-95158428D01*
X150439095Y-95097952D01*
X150427000Y-95073761D01*
X150414904Y-95061666D01*
X150390714Y-95049571D01*
X150366523Y-95049571D01*
X150330238Y-95061666D01*
X150185095Y-95206809D01*
X150185095Y-95049571D01*
X150439095Y-94819761D02*
X150439095Y-94940714D01*
X150318142Y-94952809D01*
X150330238Y-94940714D01*
X150342333Y-94916523D01*
X150342333Y-94856047D01*
X150330238Y-94831857D01*
X150318142Y-94819761D01*
X150293952Y-94807666D01*
X150233476Y-94807666D01*
X150209285Y-94819761D01*
X150197190Y-94831857D01*
X150185095Y-94856047D01*
X150185095Y-94916523D01*
X150197190Y-94940714D01*
X150209285Y-94952809D01*
M02*
