%TF.GenerationSoftware,KiCad,Pcbnew,(6.0.8)*%
%TF.CreationDate,2022-11-07T14:22:25-05:00*%
%TF.ProjectId,3-input-or-gate,332d696e-7075-4742-9d6f-722d67617465,rev?*%
%TF.SameCoordinates,Original*%
%TF.FileFunction,Copper,L2,Bot*%
%TF.FilePolarity,Positive*%
%FSLAX46Y46*%
G04 Gerber Fmt 4.6, Leading zero omitted, Abs format (unit mm)*
G04 Created by KiCad (PCBNEW (6.0.8)) date 2022-11-07 14:22:25*
%MOMM*%
%LPD*%
G01*
G04 APERTURE LIST*
%TA.AperFunction,ViaPad*%
%ADD10C,0.800000*%
%TD*%
%TA.AperFunction,Conductor*%
%ADD11C,0.250000*%
%TD*%
G04 APERTURE END LIST*
D10*
%TO.N,GND*%
X148000000Y-96925000D03*
%TO.N,C*%
X147825000Y-99525000D03*
X150502597Y-97039500D03*
%TD*%
D11*
%TO.N,C*%
X148575000Y-97475000D02*
X148575000Y-98775000D01*
X150502597Y-97039500D02*
X149010500Y-97039500D01*
X149010500Y-97039500D02*
X148575000Y-97475000D01*
X148575000Y-98775000D02*
X147825000Y-99525000D01*
%TD*%
%TA.AperFunction,Conductor*%
%TO.N,GND*%
G36*
X146224517Y-91401002D02*
G01*
X146271010Y-91454658D01*
X146282373Y-91504600D01*
X146287403Y-91768658D01*
X146297844Y-92316769D01*
X146299939Y-92426775D01*
X146299896Y-92433220D01*
X146290000Y-92740000D01*
X146295035Y-92752307D01*
X146295035Y-92752309D01*
X146308050Y-92784122D01*
X146310792Y-92792464D01*
X146310985Y-92793891D01*
X146356117Y-92913943D01*
X146360039Y-92919865D01*
X146360041Y-92919869D01*
X146362443Y-92923495D01*
X146374009Y-92945355D01*
X146380000Y-92960000D01*
X146391039Y-92969659D01*
X146399448Y-92981435D01*
X146405085Y-92987882D01*
X146426934Y-93020873D01*
X146432081Y-93025769D01*
X146432082Y-93025771D01*
X146470788Y-93062594D01*
X146519855Y-93109275D01*
X146525965Y-93112897D01*
X146525969Y-93112900D01*
X146621586Y-93169582D01*
X146630181Y-93174677D01*
X146752332Y-93213773D01*
X146786382Y-93216653D01*
X146789556Y-93217102D01*
X146789235Y-93217235D01*
X146788918Y-93218000D01*
X146789235Y-93218765D01*
X146789802Y-93219000D01*
X146808796Y-93219000D01*
X146819417Y-93219448D01*
X146880130Y-93224584D01*
X146880031Y-93221082D01*
X146880786Y-93220743D01*
X146880921Y-93220390D01*
X146894689Y-93219000D01*
X147937699Y-93219000D01*
X147959741Y-93222072D01*
X147959363Y-93225106D01*
X148098160Y-93225313D01*
X148232859Y-93191831D01*
X148355406Y-93126663D01*
X148458475Y-93033704D01*
X148535906Y-92918513D01*
X148583068Y-92787974D01*
X148586704Y-92752309D01*
X148595306Y-92667917D01*
X148595306Y-92667916D01*
X148597143Y-92649892D01*
X148593088Y-92649977D01*
X148592755Y-92649219D01*
X148592472Y-92649109D01*
X148591000Y-92633156D01*
X148591000Y-92112297D01*
X148591026Y-92109726D01*
X148596971Y-91818429D01*
X148618359Y-91750731D01*
X148672952Y-91705342D01*
X148722945Y-91695000D01*
X151484469Y-91695000D01*
X151552590Y-91715002D01*
X151599083Y-91768658D01*
X151610468Y-91820548D01*
X151630412Y-97385002D01*
X151636999Y-99222721D01*
X151637000Y-99223173D01*
X151637000Y-99934000D01*
X151616998Y-100002121D01*
X151563342Y-100048614D01*
X151511000Y-100060000D01*
X148426897Y-100060000D01*
X148358776Y-100039998D01*
X148312283Y-99986342D01*
X148302179Y-99916068D01*
X148326935Y-99857295D01*
X148344509Y-99834393D01*
X148344511Y-99834390D01*
X148349536Y-99827841D01*
X148410044Y-99681762D01*
X148430682Y-99525000D01*
X148421882Y-99458159D01*
X148432821Y-99388011D01*
X148457709Y-99352618D01*
X148791222Y-99019105D01*
X148799326Y-99011678D01*
X148819750Y-98994540D01*
X148828194Y-98987455D01*
X148833704Y-98977912D01*
X148833707Y-98977908D01*
X148847036Y-98954821D01*
X148852941Y-98945551D01*
X148868232Y-98923713D01*
X148874554Y-98914684D01*
X148877407Y-98904036D01*
X148878886Y-98900865D01*
X148880078Y-98897589D01*
X148885588Y-98888045D01*
X148892134Y-98850924D01*
X148894508Y-98840217D01*
X148904263Y-98803807D01*
X148900979Y-98766269D01*
X148900500Y-98755288D01*
X148900500Y-97662016D01*
X148920502Y-97593895D01*
X148937405Y-97572921D01*
X149108421Y-97401905D01*
X149170733Y-97367879D01*
X149197516Y-97365000D01*
X149933311Y-97365000D01*
X150001432Y-97385002D01*
X150033274Y-97414296D01*
X150074315Y-97467782D01*
X150199756Y-97564036D01*
X150345835Y-97624544D01*
X150502597Y-97645182D01*
X150510785Y-97644104D01*
X150651171Y-97625622D01*
X150659359Y-97624544D01*
X150805438Y-97564036D01*
X150930879Y-97467782D01*
X151027133Y-97342341D01*
X151087641Y-97196262D01*
X151108279Y-97039500D01*
X151087641Y-96882738D01*
X151027133Y-96736659D01*
X150930879Y-96611218D01*
X150805438Y-96514964D01*
X150659359Y-96454456D01*
X150502597Y-96433818D01*
X150345835Y-96454456D01*
X150199756Y-96514964D01*
X150074315Y-96611218D01*
X150069292Y-96617764D01*
X150033274Y-96664704D01*
X149975936Y-96706571D01*
X149933311Y-96714000D01*
X149030210Y-96714000D01*
X149019228Y-96713520D01*
X148992680Y-96711197D01*
X148992678Y-96711197D01*
X148981693Y-96710236D01*
X148945285Y-96719992D01*
X148934558Y-96722370D01*
X148931199Y-96722962D01*
X148897455Y-96728912D01*
X148887910Y-96734423D01*
X148884634Y-96735615D01*
X148881466Y-96737092D01*
X148870816Y-96739946D01*
X148861785Y-96746270D01*
X148839956Y-96761555D01*
X148830685Y-96767461D01*
X148807594Y-96780793D01*
X148798045Y-96786306D01*
X148790959Y-96794751D01*
X148773815Y-96815182D01*
X148766389Y-96823285D01*
X148358785Y-97230889D01*
X148350681Y-97238316D01*
X148321806Y-97262545D01*
X148316293Y-97272094D01*
X148302961Y-97295185D01*
X148297055Y-97304456D01*
X148275446Y-97335316D01*
X148272592Y-97345966D01*
X148271115Y-97349134D01*
X148269923Y-97352410D01*
X148264412Y-97361955D01*
X148258462Y-97395699D01*
X148257870Y-97399058D01*
X148255492Y-97409785D01*
X148245736Y-97446193D01*
X148246697Y-97457178D01*
X148246697Y-97457180D01*
X148249020Y-97483728D01*
X148249500Y-97494710D01*
X148249500Y-98587983D01*
X148229498Y-98656104D01*
X148212595Y-98677078D01*
X147997382Y-98892291D01*
X147935070Y-98926317D01*
X147891842Y-98928118D01*
X147825000Y-98919318D01*
X147668238Y-98939956D01*
X147522159Y-99000464D01*
X147396718Y-99096718D01*
X147300464Y-99222159D01*
X147239956Y-99368238D01*
X147219318Y-99525000D01*
X147239956Y-99681762D01*
X147300464Y-99827841D01*
X147305489Y-99834390D01*
X147305491Y-99834393D01*
X147323065Y-99857295D01*
X147348666Y-99923515D01*
X147334402Y-99993064D01*
X147284801Y-100043861D01*
X147223103Y-100060000D01*
X146100000Y-100060000D01*
X146044448Y-100081504D01*
X146017662Y-100088605D01*
X145979243Y-100094370D01*
X145979240Y-100094371D01*
X145971689Y-100095504D01*
X145964629Y-100098417D01*
X145849599Y-100145879D01*
X145849595Y-100145881D01*
X145842538Y-100148793D01*
X145827185Y-100160074D01*
X145824775Y-100161845D01*
X145813205Y-100168189D01*
X145803918Y-100174612D01*
X145790000Y-100180000D01*
X145779411Y-100191835D01*
X145760120Y-100209353D01*
X145736114Y-100226993D01*
X145729952Y-100231521D01*
X145725062Y-100237389D01*
X145725059Y-100237392D01*
X145645401Y-100332984D01*
X145645399Y-100332988D01*
X145640511Y-100338853D01*
X145637173Y-100345723D01*
X145633021Y-100352150D01*
X145632350Y-100351716D01*
X145631645Y-100352776D01*
X145632571Y-100353362D01*
X145626976Y-100362203D01*
X145620000Y-100370000D01*
X145615941Y-100379641D01*
X145586447Y-100449687D01*
X145583651Y-100455858D01*
X145579445Y-100464514D01*
X145579030Y-100464312D01*
X145576841Y-100467399D01*
X145578666Y-100468167D01*
X145544888Y-100548391D01*
X145540000Y-100560000D01*
X145540000Y-101635381D01*
X145519998Y-101703502D01*
X145500138Y-101727339D01*
X144798085Y-102384958D01*
X144734695Y-102416930D01*
X144711947Y-102419000D01*
X142343143Y-102419000D01*
X142275022Y-102398998D01*
X142228529Y-102345342D01*
X142217172Y-102295655D01*
X142203151Y-101629650D01*
X142221714Y-101561125D01*
X142274379Y-101513513D01*
X142329122Y-101501000D01*
X144299802Y-101501000D01*
X144300000Y-101501082D01*
X144300765Y-101500765D01*
X144301000Y-101500198D01*
X144301082Y-101500000D01*
X144301000Y-101499802D01*
X144301000Y-100564000D01*
X144301707Y-99916068D01*
X144310000Y-92320000D01*
X144304668Y-92319949D01*
X144303738Y-92316769D01*
X144303166Y-92310346D01*
X144301000Y-92307659D01*
X144301000Y-92300198D01*
X144301082Y-92300000D01*
X144300765Y-92299235D01*
X144300198Y-92299000D01*
X144300000Y-92298918D01*
X144299802Y-92299000D01*
X142333268Y-92299000D01*
X142265147Y-92278998D01*
X142218654Y-92225342D01*
X142207299Y-92175741D01*
X142201030Y-91887380D01*
X142201000Y-91884642D01*
X142201000Y-91507000D01*
X142221002Y-91438879D01*
X142274658Y-91392386D01*
X142327000Y-91381000D01*
X146156396Y-91381000D01*
X146224517Y-91401002D01*
G37*
%TD.AperFunction*%
%TD*%
M02*
